<?xml version="1.0" encoding="UTF-8" standalone="no" ?>
<svg
  xmlns:dc="http://purl.org/dc/elements/1.1/"
  xmlns:cc="http://creativecommons.org/ns#"
  xmlns:rdf="http://www.w3.org/1999/02/22-rdf-syntax-ns#"
  xmlns:svg="http://www.w3.org/2000/svg"
  xmlns="http://www.w3.org/2000/svg"
  viewBox="0 0 2400 1496"
  height="1496"
  width="2400"
  xml:space="preserve"
  id="svg2"
  version="1.1"
><metadata id="metadata8"><rdf:RDF><cc:Work rdf:about=""><dc:format
        >image/svg+xml</dc:format><dc:type
          rdf:resource="http://purl.org/dc/dcmitype/StillImage"
        /></cc:Work></rdf:RDF></metadata><defs id="defs6" /><g
    transform="matrix(1.3333333,0,0,-1.3333333,0,1496)"
    id="g10"
  ><g transform="scale(0.1)" id="g12"><g
        transform="scale(1.10429)"
        id="g14"
      ><path
          id="path16"
          style="fill:#ffffff;fill-opacity:1;fill-rule:nonzero;stroke:none"
          d="M 16300,0 H 0 V 10160.3 H 16300 V 0"
        /></g><path
        id="path18"
        style="fill:#b8babb;fill-opacity:1;fill-rule:nonzero;stroke:none"
        d="m 14460.3,7599.55 c 8.8,29.31 35.2,20.52 35.2,20.52 0,0 244.7,-70.35 477.3,-136.44 -32.1,89.83 -78.4,167.32 -109.2,213.48 -6.6,-3.62 -14.1,-5.85 -22.1,-5.85 -25.7,0 -46.5,20.82 -46.5,46.5 0,6.75 1.5,13.14 4.1,18.94 -15.3,11.9 -34,27.45 -51.8,44.56 -31.7,30.62 1.2,66.92 -15.8,90.73 -17,23.82 -36.3,38.56 -55.6,66.91 -19.3,28.35 -44.2,58.97 -66.9,98.67 -22.7,39.69 -11.4,103.2 -11.4,103.2 14.8,-70.31 48.8,-97.53 48.8,-97.53 -19.3,21.54 -37.4,103.2 -37.4,103.2 l 17,17.01 c 29.5,-19.28 89.6,-161.04 83.9,-141.76 -5.6,19.28 -27.2,75.98 -39.7,91.86 -12.5,15.88 -32.9,60.11 -32.9,60.11 l 29.5,22.68 21.6,-34.02 c 0,0 -12.5,35.15 -8,43.09 4.6,7.94 17,12.47 17,12.47 0,0 -5.6,7.94 9.1,-10.2 14.8,-18.15 26.1,-94.13 26.1,-94.13 12.5,41.96 -4.5,108.87 -4.5,108.87 15.8,-35.16 23.8,-69.18 21.5,-108.87 -2.3,-39.69 34,-104.34 34,-104.34 9.1,-37.42 27.3,-82.78 34.1,-103.2 6.8,-20.41 3.4,-39.69 2.2,-54.43 -1.1,-14.75 1.2,-23.82 13.6,-44.23 7.6,-12.42 12.7,-31.1 15.5,-43.86 22.1,-3.6 39,-22.63 39,-45.73 0,-16.35 -8.5,-30.67 -21.3,-38.96 63,-81.32 101.3,-155.39 123.9,-220.23 166.6,-47.31 323.5,-91.44 375.5,-104.73 126,-32.25 187.6,-64.49 187.6,-64.49 -41.1,-345.89 -190.6,-940.94 -190.6,-940.94 -29.3,26.38 -296,90.87 -310.7,90.87 -14.6,0 -76.2,-14.66 -87.9,-11.72 -11.7,2.93 -23.5,-14.66 -175.9,17.58 -152.4,32.25 -214,134.84 -214,134.84 -41,11.73 -307.8,93.8 -307.8,93.8 0,0 184.7,876.46 193.5,905.77"
      /><path
        id="path20"
        style="fill:#b8babb;fill-opacity:1;fill-rule:nonzero;stroke:none"
        d="m 10782.4,5663.88 c 34.3,9.37 25,34.34 25,34.34 l -87.4,40.58 c 0,0 -103.1,-46.82 -134.3,-81.17 -31.2,-34.33 -31.2,-18.72 -31.2,-18.72 0,0 -6.2,21.85 12.5,46.82 18.7,24.97 18.7,62.43 25,90.53 6.2,28.09 21.8,99.89 40.5,99.89 18.8,0 140.5,28.09 171.7,34.33 31.2,6.25 46.9,59.31 78.1,99.89 31.2,40.59 159.2,221.63 171.7,237.24 12.4,15.61 53,74.92 71.8,84.28 0,0 128.1,-162.61 259.8,-329.7 8.2,117.75 -10.2,259.67 -113.1,367.16 -93.6,97.72 -135.6,163.26 -152.8,212.44 -1.1,-0.04 -2.2,-0.17 -3.3,-0.17 -51.7,0 -93.7,41.93 -93.7,93.65 0,5.96 0.7,11.77 1.7,17.43 -9.1,11.04 -18.6,23.37 -28,36.94 -33.8,48.99 -25,57.47 -30,101.74 -5,44.28 -10,61.24 -8.8,91.38 1.3,30.14 -5,59.35 -12.5,85.72 -7.5,26.38 -5,49.93 -8.8,76.31 -3.7,26.37 -20,54.64 -26.3,68.77 -6.2,14.13 -12.5,35.79 -16.2,49.92 -3.8,14.14 5,43.33 5,43.33 0,0 3.7,-14.13 12.5,-50.86 8.8,-36.74 17.5,-27.32 28.8,-38.63 11.3,-11.3 18.8,-27.32 21.3,-47.1 2.5,-19.78 48.8,-131.88 40,-107.39 -8.7,24.49 -13.7,57.47 -17.5,81.02 -3.8,23.55 -22.5,60.28 -36.3,83.84 -13.8,23.55 -22.5,75.36 -16.3,82.89 6.3,7.54 50.1,9.42 50.1,9.42 0,0 30,-59.34 30,-54.63 0,4.71 -17.5,55.58 -17.5,55.58 l 17.5,1.88 c 0,0 20.1,1.88 23.8,-10.36 3.8,-12.25 2.5,-134.71 2.5,-134.71 l 10,-4.71 c 1.3,3.76 10.1,17.9 1.3,58.4 -8.8,40.51 8.8,87.62 8.8,87.62 0,0 -2.5,-20.73 1.2,-57.47 3.8,-36.74 17.5,-38.62 21.3,-65.94 2.7,-19.7 -4.3,-57.39 -8.5,-76.97 4.8,9.02 15.1,20.16 27.3,53.42 17.5,48.04 -5,83.84 -5,83.84 17.5,-17.9 36.3,-13.19 12.5,-71.6 -23.8,-58.4 -56.3,-210.07 11.3,-311.81 12.3,-18.54 21.8,-34.74 29.3,-48.93 36.6,-12.76 62.8,-47.45 62.8,-88.34 0,-42.46 -28.2,-78.27 -67,-89.75 16.7,-45.03 44.8,-95.97 92,-144.37 117.9,-120.77 180.1,-220.46 157.5,-447.67 90.3,-114.56 181.2,-229.94 232.7,-295.26 128,-162.32 103,-206.02 81.2,-249.73 -21.9,-43.7 -212.3,-405.8 -305.9,-449.5 l -168.6,221.63 c 0,0 -87.4,-18.73 -156.1,6.24 -68.7,24.97 -146.7,56.19 -181,71.8 -34.4,15.61 -112.4,46.82 -143.6,62.43 -31.2,15.61 -153,165.44 -171.7,184.17 -18.7,18.73 -34.4,21.85 -34.4,21.85 0,0 202.9,87.4 237.3,96.77"
      /><path
        id="path22"
        style="fill:#b8babb;fill-opacity:1;fill-rule:nonzero;stroke:none"
        d="m 10108,8654.83 c 18.1,210.66 12,240.75 12,240.75 0,0 105.4,42.13 153.5,36.11 0,0 72.3,282.88 81.3,319 9,36.11 24.1,57.17 30.1,18.05 0,0 268.1,-128.4 495.8,-243.57 165.3,181.88 97,293.5 49.7,339.5 -5.7,-7.64 -14.8,-12.65 -25,-12.65 -17.3,0 -31.4,14.03 -31.4,31.34 0,1.18 0.3,2.3 0.4,3.44 -16.2,15.4 -37.9,35.08 -59.2,43.64 -34,13.63 -111.1,134.32 -98.3,127.51 12.9,-6.82 25.8,-31.15 26.7,-35.04 0.9,-3.89 95.5,-73.97 95.5,-73.97 0,0 -12.9,11.68 -23.9,24.33 -11,12.65 -18.4,26.28 -23,38.93 -4.5,12.65 -30.3,31.15 -45.9,39.91 -15.6,8.76 -14.7,37.96 -14.7,37.96 4.6,-1.95 25.7,-16.55 34.9,-25.31 9.2,-8.76 22.1,-22.39 27.6,-28.23 5.5,-5.84 25.7,-16.54 25.7,-16.54 -11.9,10.7 -10.1,12.65 -34.9,41.85 -24.8,29.2 -39.5,31.15 -38.6,34.07 0.9,2.92 17.5,27.25 17.5,27.25 0,0 22,-0.97 30.3,-5.84 8.2,-4.87 8.2,-24.33 16.5,-36.99 8.3,-12.65 37.7,-50.61 37.7,-50.61 -1,6.81 7.3,26.28 -5.5,32.12 -12.9,5.84 -30.3,55.48 -30.3,55.48 0,0 36.7,-42.83 45.9,-57.43 9.1,-14.6 11.9,-39.9 15.6,-62.29 3.6,-22.38 15.6,-43.8 30.3,-60.34 6.2,-7 9.7,-16.21 11.8,-24.57 12,-4.38 20.6,-15.8 20.6,-29.33 0,-3.09 -0.6,-6.01 -1.4,-8.83 56.5,-34.46 62.7,-108.62 67.8,-157.02 3.2,-30.51 -48.7,-114.93 -108.4,-199.41 156.1,-79.18 290,-150.65 299.7,-167.66 24.1,-42.13 6,-54.17 6,-54.17 l -33.1,-129.4 c 0,0 -204.6,-785.45 -219.7,-833.6 0,0 -6,-24.07 -51.1,9.03 -45.2,33.1 -451.4,219.69 -517.6,264.82 -66.2,45.14 -264.9,132.41 -264.9,132.41 l 24.1,105.34 c 0,0 -48.1,99.3 -30.1,309.96"
      /><path
        id="path24"
        style="fill:#b8babb;fill-opacity:1;fill-rule:nonzero;stroke:none"
        d="m 6155.4,8192.43 c -14.46,30.13 -10.85,45.79 -10.85,74.71 0,28.92 -13.26,62.66 -9.64,93.99 3.62,31.33 -13.25,130.15 -13.25,130.15 12.05,-12.05 25.3,-40.97 31.32,-59.05 6.03,-18.08 15.67,-51.82 12.06,-79.53 -3.62,-27.72 15.66,-114.48 15.66,-114.48 -10.85,42.18 0,72.3 -1.2,98.81 -1.21,26.51 -6.03,85.56 -15.67,108.46 -9.64,22.89 -21.69,44.58 -21.69,44.58 l 32.53,18.08 c 0,0 25.31,-1.21 31.34,-4.82 6.02,-3.62 10.84,-32.54 12.05,-48.21 1.2,-15.66 22.89,-81.94 22.89,-81.94 0,0 -4.82,30.13 -10.84,56.64 -6.03,26.51 -13.26,73.51 -13.26,73.51 0,0 21.69,7.22 20.49,3.61 -1.21,-3.61 21.69,-49.4 24.1,-72.3 2.41,-22.89 31.33,-48.2 43.38,-89.17 12.05,-40.98 -3.62,-150.63 -3.62,-150.63 15.67,21.69 27.72,110.86 27.72,110.86 -1.21,-16.87 2.41,-78.32 -15.66,-113.27 -18.08,-34.95 -13.26,-77.12 -3.62,-114.48 5.94,-23.02 5.93,-57.88 5.04,-81.29 19.8,-4.96 34.53,-22.73 34.53,-44.06 0,-15.4 -7.69,-28.95 -19.39,-37.2 0.17,-0.36 0.27,-0.67 0.44,-1.04 25.72,-54.61 136.33,-171.92 253.52,-256.36 84.16,-60.64 146.27,-162.79 178.82,-222.35 20.05,93.54 87.99,430.11 95.93,455.52 l 177.14,-56.03 -25.31,-27.11 -21.69,-130.15 c 0,0 193.41,-21.69 211.48,-27.11 18.08,-5.43 56.04,-28.92 70.5,-34.35 14.46,-5.42 122.91,-77.72 106.64,-83.14 -16.26,-5.43 -46.99,-21.69 -50.61,-27.12 -3.61,-5.42 -1.81,-65.06 -14.46,-93.98 -12.65,-28.93 -19.88,-90.39 -27.11,-113.88 -7.23,-23.5 -28.92,-66.88 -36.15,-79.53 -7.23,-12.65 -34.35,-59.65 -37.96,-77.73 -3.62,-18.07 -23.5,-74.11 -21.69,-95.8 1.81,-21.69 5.42,-99.41 -9.04,-112.06 -14.46,-12.65 -37.96,-3.62 -37.96,-3.62 l -18.07,-27.11 c 0,0 -75.92,16.26 -103.03,19.88 -27.12,3.62 -180.76,36.15 -180.76,36.15 0,0 -14.46,-81.34 -14.46,-97.61 0,-16.26 1.81,-46.99 1.81,-46.99 l -175.33,3.61 c 0,0 -9.04,61.46 0,94 8.6,30.96 90.82,439.83 103.42,494.86 -13.67,30.81 -36.11,79.56 -81.73,139.58 -68.69,90.38 -159.06,151.84 -213.29,187.98 -49.95,33.3 -133.58,155.47 -146.47,174.54 -3.46,-0.83 -7.03,-1.41 -10.75,-1.41 -24.11,0 -43.65,18.79 -45.25,42.5 -19.41,19.76 -44.3,48.69 -45.16,57.31 -1.21,12.05 -9.65,66.28 -20.49,98.82 -10.85,32.53 -127.73,153.03 -127.73,153.03 45.79,-20.48 104.83,-96.4 90.38,-66.27"
      /><path
        id="path26"
        style="fill:#b8babb;fill-opacity:1;fill-rule:nonzero;stroke:none"
        d="m 5089.77,6061.66 -94.83,238.44 877.86,276.36 c 0,0 146.39,-369.72 226.73,-571.82 98.36,-24.26 191.55,-72.93 247.1,-164.95 120.56,-199.75 235.73,-391.38 305.42,-483.71 11.81,7.15 25.61,11.34 40.42,11.34 37.57,0 68.94,-26.48 76.54,-61.79 45.85,-30.71 118.19,-95.83 119.88,-198.5 2.41,-147.01 -79.53,-349.46 -60.25,-489.24 19.28,-139.78 7.23,-260.29 -4.83,-294.03 0,0 -16.86,197.62 -21.69,255.47 0,0 7.24,-238.6 -60.24,-257.88 l -67.49,14.46 c 0,0 21.69,103.64 36.15,175.94 0,0 -48.2,-122.92 -69.89,-163.89 l -74.71,24.1 c 0,0 -24.94,44.55 4.83,124.45 4.86,13.02 11.17,26.99 19.27,41.85 57.84,106.04 120.5,202.44 122.91,243.41 0,0 -151.83,-214.49 -173.52,-294.03 0,0 28.92,180.76 89.17,269.93 60.25,89.17 67.48,178.35 67.48,197.62 0,19.29 -31.33,98.82 -31.33,144.61 0,28.55 -3.74,77.71 -5.39,118.28 -26.69,12.49 -45.22,39.5 -45.22,70.91 0,21.59 8.74,41.14 22.87,55.31 -8.17,10.4 -15.51,21.52 -20.46,32.66 -19.28,43.38 -320.54,494.05 -392.84,542.26 -29.03,19.35 -67.04,33.2 -107.41,43.23 8.78,-22.04 16.31,-40.94 22.03,-55.23 54.18,-135.46 159.85,-403.7 162.56,-411.83 2.71,-8.13 -151.72,-65.03 -230.3,-92.12 -78.57,-27.1 -617.75,-219.47 -617.75,-219.47 l -84,200.5 c 0,0 -132.76,48.77 -208.63,154.44 -75.86,105.67 -165.27,382.03 -151.72,436.22 l 81.28,86.7"
      /><path
        id="path28"
        style="fill:#b8babb;fill-opacity:1;fill-rule:nonzero;stroke:none"
        d="m 2557.55,7874.97 c 0,0 13.56,11.63 29.07,19.38 15.5,7.76 15.5,62.02 -3.88,137.61 -19.38,75.58 58.14,180.24 58.14,180.24 l 248.08,118.22 -56.21,515.53 340.38,-337.44 c 2.54,82.74 -12.59,160.07 -66.18,200.12 -108.04,80.77 -144.81,142.51 -160.26,183.79 -2.04,-0.29 -4.06,-0.63 -6.18,-0.63 -24.49,0 -44.34,19.86 -44.34,44.34 0,10.81 4.02,20.58 10.44,28.27 -4.71,22.05 -10.44,65.48 -10.44,78.58 0,17.44 -23.26,59.6 -43.61,93.03 -20.35,33.44 -23.26,58.15 -37.8,97.4 -14.54,39.25 -20.35,55.24 -14.54,85.77 5.82,30.52 -8.72,59.6 -8.72,59.6 18.9,-10.18 26.17,-11.63 27.62,-42.16 1.46,-30.52 55.24,-122.11 55.24,-122.11 -1.45,4.36 -20.35,50.88 -26.16,66.87 -5.82,15.99 -14.54,84.32 -14.54,84.32 l 43.61,2.9 5.82,-63.96 c 0,1.48 0,3.68 0,7.27 0,15.99 7.27,58.15 11.62,58.15 4.36,0 20.36,5.81 20.36,-4.36 0,-10.18 1.45,-95.95 1.45,-95.95 0,0 4.36,-27.62 2.91,5.82 -1.46,33.43 14.53,98.85 14.53,98.85 l -1.45,-72.69 c -7.27,-46.51 34.89,-141 56.69,-222.41 16.23,-60.6 0.25,-105.05 -8.98,-123.83 2.87,-5.87 4.62,-12.38 4.62,-19.36 0,-17.84 -10.59,-33.11 -25.79,-40.15 18.05,-44.7 58.51,-120.22 134.82,-153.91 83.21,-36.75 100.5,-128.99 92.56,-246.74 l 318.83,-316.08 -17.44,-711.27 c 0,0 -319.78,219 -323.65,224.82 0,0 -127.92,-67.84 -197.69,-79.47 -69.77,-11.62 -184.12,32.95 -222.88,52.33 -38.76,19.38 -118.22,106.59 -135.66,127.91 -17.44,21.32 -44.58,42.64 -44.58,42.64 l 25.2,19.38 -31.01,19.38"
      /><path
        id="path30"
        style="fill:#b8babb;fill-opacity:1;fill-rule:nonzero;stroke:none"
        d="m 8478.95,2240.19 c -7.8,11.35 -19.86,22.69 -19.86,22.69 0,0 -78.01,6.39 -97.86,12.06 l -1.42,-21.98 c 0,0 12.06,-4.97 18.44,-11.35 6.38,-6.38 8.51,-12.76 13.47,-14.89 4.96,-2.13 20.57,-7.09 26.24,-13.47 5.67,-6.39 12.77,-7.09 19.86,-12.06 7.09,-4.97 42.55,-8.51 56.02,-9.93 13.47,-1.42 35.46,-4.25 35.46,-4.25 0,0 -42.55,41.84 -50.35,53.18"
      /><path
        id="path32"
        style="fill:#b8babb;fill-opacity:1;fill-rule:nonzero;stroke:none"
        d="m 8493.84,2191.26 c -13.47,1.42 -48.93,4.96 -56.02,9.93 -7.09,4.97 -14.18,5.67 -19.86,12.06 -5.67,6.38 -21.27,11.34 -26.24,13.47 -4.96,2.13 -7.09,8.51 -13.47,14.89 -6.38,6.38 -18.45,11.35 -18.45,11.35 l 1.43,21.98 c 19.85,-5.67 97.86,-12.06 97.86,-12.06 0,0 12.06,-11.34 19.86,-22.69 7.8,-11.34 50.35,-53.18 50.35,-53.18 0,0 -21.98,2.83 -35.46,4.25 z M 9199.47,80.8984 c -15.36,53.8006 -19.2,61.4026 -15.36,111.3006 3.84,50 -7.68,161.301 -7.68,161.301 l 57.59,76.801 c 0,0 -3.84,57.601 -3.84,96 0,38.398 -61.43,126.699 -88.3,153.5 C 9115,706.699 9049.73,783.5 9068.93,818 c 19.2,34.602 42.23,88.301 23.04,180.5 -19.2,92.1 -168.93,72.9 -222.68,65.3 -53.75,-7.7 -61.43,161.2 -61.43,161.2 -29.51,120.01 -42.87,228.85 -48.9,306.53 l -6.69,45.23 c 0,0 -64.51,405.31 -73.33,461.16 -8.81,55.84 -29.39,138.15 -44.09,164.6 -14.69,26.45 -79.36,76.42 -99.93,82.3 -20.58,5.88 -97,52.91 -102.88,67.6 -5.88,14.7 -61.73,52.92 -61.73,52.92 0,0 44.09,108.75 8.82,132.27 -24.95,16.62 -61.73,-38.22 -85.24,-102.88 -23.52,-64.67 -26.46,-108.76 -23.52,-135.21 2.95,-26.46 -5.87,-79.37 2.95,-129.33 8.81,-49.97 11.75,-91.12 35.26,-108.76 23.52,-17.64 99.94,-79.36 126.4,-102.88 26.46,-23.51 44.09,-55.85 44.09,-55.85 0,0 17.63,-249.84 35.27,-396.81 17.64,-146.97 35.27,-426.19 61.73,-520.288 26.45,-94 32.33,-114.602 32.33,-135.2 0,-20.601 -35.27,-41.101 -47.03,-67.601 C 8549.61,756.402 8143.98,147.902 8085.2,3.90234 8084.88,3.10156 8084.53,2.30078 8084.21,1.5 h 1122.96 c 0.85,25.9023 -0.19,53.1016 -7.7,79.3984"
      /><path
        id="path34"
        style="fill:#b8babb;fill-opacity:1;fill-rule:nonzero;stroke:none"
        d="m 10715.5,619.199 c -8.6,123.903 -72.7,337.602 -55.6,457.201 17.1,119.7 34.2,175.23 12.8,273.52 -21.3,98.28 -17,132.47 -46.9,166.66 -30,34.18 -47.1,42.72 -47.1,42.72 0,0 -38.4,-68.36 -59.8,-64.09 -21.3,4.27 -12.8,423.05 -29.9,534.16 -17.1,111.11 -21.4,602.54 -47,653.83 -25.6,51.28 -55.6,153.83 -38.5,235.03 17.1,81.19 47,162.38 51.3,200.85 4.3,38.45 68.4,145.29 89.8,175.2 21.3,29.91 55.5,98.29 55.5,98.29 0,0 -55.5,38.45 -89.7,4.27 l 68.3,136.75 c 0,0 -17,51.28 -94,12.81 -76.9,-38.45 -85.4,-89.73 -106.8,-141.02 -21.4,-51.28 -111.1,-209.39 -128.2,-239.3 -17.1,-29.91 -42.7,-25.64 -72.6,-81.19 -30,-55.56 -59.9,-132.47 -59.9,-132.47 0,0 -51.3,153.83 -119.63,136.74 -68.38,-17.09 -51.28,-25.64 -21.37,-76.92 29.9,-51.28 72.7,-145.29 81.2,-183.76 8.5,-38.45 38.4,-102.55 68.4,-141.02 29.9,-38.45 68.3,-29.91 76.9,-106.83 8.5,-76.92 -4.3,-474.34 -8.6,-619.63 -4.2,-145.29 -29.9,-397.42 -42.7,-465.79 -12.8,-68.38 -17.1,-170.93 -29.9,-196.57 -12.8,-25.64 -68.4,-81.24 -85.5,-145.34 -17.1,-64.1 -98.26,-170.898 -89.71,-316.198 8.54,-145.301 21.36,-128.2 21.36,-128.2 0,0 -55.55,-98.3 -42.73,-162.402 12.82,-64.098 29.91,-59.801 21.37,-81.199 C 9937.74,444 9877.91,392.699 9860.82,350 c -0.21,-0.602 -0.47,-1 -0.69,-1.602 -1.22,-47.5 -3.02,-95.199 -5.35,-142.796 19.45,-34.2 41.59,-72.301 35.95,-86.403 -7.4,-18.5 -34.05,-1.797 -41.02,-5.297 C 9847.44,76.5 9844.94,39 9842.24,1.5 h 1038.46 c -78.2,234.5 -159.4,533.199 -165.2,617.699"
      /><path
        id="path36"
        style="fill:#b8babb;fill-opacity:1;fill-rule:nonzero;stroke:none"
        d="m 11973.7,35.3008 c -21.4,8.6015 -59.8,25.6992 -59.8,59.8008 0,34.1994 -12.9,124.0004 -25.7,136.7964 -12.8,12.801 -21.3,42.704 -38.4,68.403 -17.1,25.597 -55.6,98.199 -81.2,136.699 -25.7,38.5 -106.9,115.402 -106.9,115.402 l -25.6,34.2 c 0,0 -94,311.898 -123.9,491.398 -29.9,179.48 -42.8,444.43 -42.8,465.8 0,21.36 34.2,0 30,34.18 -4.3,34.19 -25.7,38.46 -17.1,68.38 8.5,29.91 29.9,94.01 51.2,115.38 21.4,21.36 68.4,111.1 85.5,136.74 17.1,25.64 42.7,183.75 68.4,217.94 25.6,34.19 72.6,59.83 72.6,72.65 0,12.82 -42.7,42.73 -85.4,12.82 -42.8,-29.91 -106.9,-106.83 -106.9,-106.83 0,0 -42.7,299.13 -106.8,299.13 -65.4,0 -21.4,-102.56 -4.3,-145.3 17.1,-42.73 17.1,-136.74 17.1,-136.74 l -4.3,-25.64 -25.6,25.64 c 0,0 -21.4,128.19 -55.6,128.19 -34.1,0 -72.6,-12.81 -81.1,-51.27 0,0 -64.1,8.55 -77,-34.19 -12.8,-42.73 -12.8,-42.73 -12.8,-42.73 0,0 -47,0 -64.1,-25.64 -17.1,-25.64 -29.9,-89.74 -21.4,-106.83 8.6,-17.1 4.3,-119.66 8.6,-162.39 4.3,-42.74 12.8,-123.93 12.8,-123.93 l 21.4,-42.73 c 0,0 -42.8,-8.55 -29.9,-42.74 12.8,-34.18 38.4,-25.64 38.4,-25.64 0,0 17.1,-81.19 12.8,-123.92 -4.2,-42.74 -38.4,-431.63 -29.9,-508.529 8.6,-76.899 4.3,-350.403 21.4,-410.199 0,0 -277.8,-269.301 -269.2,-316.301 7,-38.602 28.5,-146.6018 52.6,-221.801 h 1021.8 c -5.5,17.5 -12,31 -18.9,33.8008"
      /><path
        id="path38"
        style="fill:#b8babb;fill-opacity:1;fill-rule:nonzero;stroke:none"
        d="m 6608.75,6.5 c -90.42,46.8984 -100.46,157.402 -127.26,200.902 -26.79,43.598 -127.24,391.797 -140.64,435.297 -13.39,43.602 0,137.301 0,201 0,63.602 -26.78,113.801 -23.44,180.801 3.35,67 33.49,331.5 33.49,331.5 0,0 -63.62,13.4 -90.42,23.45 0,0 10.05,110.5 33.49,137.29 23.44,26.79 117.2,120.55 130.6,150.69 13.39,30.14 43.53,170.78 43.53,190.87 0,20.1 10.05,46.88 10.05,46.88 0,0 130.6,23.45 143.99,26.8 0,0 30.14,56.92 -83.72,36.83 l -50.23,23.44 c 0,0 167.44,10.05 204.27,16.74 36.84,6.7 46.88,46.89 0,50.23 -46.88,3.35 -147.34,-3.34 -147.34,-3.34 0,0 -13.4,46.88 -43.53,43.53 -30.14,-3.35 -80.37,-36.84 -113.86,-36.84 -33.48,0 -93.76,0 -93.76,0 0,0 241.1,264.55 244.45,318.13 0,0 -16.74,63.62 -77.02,-10.05 -60.27,-73.67 -93.76,-107.16 -93.76,-107.16 0,0 50.23,184.18 16.75,177.48 -33.49,-6.7 -127.26,-231.06 -147.34,-271.24 -20.1,-40.19 -60.28,-87.07 -80.37,-93.76 -20.1,-6.7 -56.93,-13.4 -66.98,-53.58 -10.04,-40.18 -13.39,-60.28 -16.74,-100.46 -3.35,-40.18 -6.7,-150.69 -20.09,-207.62 -13.39,-56.92 -13.39,-110.5 -36.83,-160.73 -23.45,-50.23 -53.58,-93.77 -50.23,-113.86 3.35,-20.09 -30.15,6.7 -30.15,6.7 0,0 -16.73,-143.99 -20.08,-170.78 -3.35,-26.79 -36.84,-127.24 -23.45,-214.34 13.4,-86.999 -30.14,-180.8 -30.14,-257.8 0,-77 46.89,-432 43.54,-545.801 -2.3,-78.097 -17.17,-174.8982 -30.61,-256.199 h 741.88 c -2.82,2 -5.55,3.69922 -8.05,5"
      /><path
        id="path40"
        style="fill:#b8babb;fill-opacity:1;fill-rule:nonzero;stroke:none"
        d="m 3196.37,2211.78 c 13.9,2.19 21.22,8.77 27.8,10.97 6.59,2.19 18.29,8.04 20.48,8.78 2.2,0.73 -1.46,6.58 -11.7,8.78 -10.24,2.19 -109.74,-2.2 -109.74,-2.2 0,0 29.27,-24.14 38.77,-29.99 9.52,-5.86 20.49,1.46 34.39,3.66"
      /><path
        id="path42"
        style="fill:#b8babb;fill-opacity:1;fill-rule:nonzero;stroke:none"
        d="m 3263.68,2308.35 c 7.31,-2.2 22.67,-12.44 24.87,-14.64 2.2,-2.19 15.37,-4.39 18.29,-1.46 2.93,2.93 15.37,17.56 17.56,18.29 2.2,0.73 -5.12,8.05 -17.56,10.24 -12.44,2.2 -113.4,2.93 -113.4,2.93 5.86,-3.66 15.37,-10.25 22.68,-10.25 7.32,0 40.24,-2.92 47.56,-5.11"
      /><path
        id="path44"
        style="fill:#b8babb;fill-opacity:1;fill-rule:nonzero;stroke:none"
        d="m 3232.95,2240.31 c 10.24,-2.2 13.9,-8.05 11.7,-8.78 -2.19,-0.74 -13.89,-6.59 -20.48,-8.78 -6.58,-2.2 -13.9,-8.78 -27.8,-10.97 -13.9,-2.2 -24.88,-9.52 -34.39,-3.66 -9.51,5.85 -38.77,29.99 -38.77,29.99 0,0 99.5,4.39 109.74,2.2 z m 73.89,80.47 c 12.44,-2.19 19.76,-9.51 17.56,-10.24 -2.19,-0.73 -14.63,-15.37 -17.56,-18.29 -2.92,-2.93 -16.09,-0.73 -18.29,1.46 -2.19,2.2 -17.55,12.44 -24.87,14.64 -7.32,2.19 -40.24,5.11 -47.56,5.11 -7.32,0 -16.82,6.59 -22.68,10.25 0,0 100.96,-0.73 113.4,-2.93 z M 3165.24,32.5 c 0,0 -23.57,141.402 -37.71,179.102 -14.14,37.699 -23.57,395.898 -42.42,509.097 -18.86,113.102 -51.85,231 -51.85,249.801 0,18.902 -47.14,193.3 -42.43,226.3 4.72,32.97 -18.86,94.25 -18.86,108.39 0,14.14 9.43,131.99 9.43,131.99 0,0 -4.71,103.7 14.15,127.27 18.85,23.57 -14.15,84.85 -14.15,84.85 0,0 -4.71,160.27 51.86,183.84 56.56,23.57 89.56,84.85 122.56,98.99 32.99,14.14 108.41,98.99 131.98,150.84 23.57,51.85 9.43,70.7 37.71,89.56 28.28,18.85 37.71,65.99 84.85,84.85 47.14,18.85 84.85,47.14 98.99,70.71 14.14,23.56 -8.08,103.94 -94.36,51.06 0,0 -51.03,-1.86 -75.16,4.64 -24.12,6.5 -107.61,17.63 -121.53,19.48 -13.92,1.86 -34.34,11.14 -43.61,14.85 -9.28,3.71 -15.77,3.71 -8.35,13.91 7.42,10.21 53.81,44.54 91.85,46.39 38.04,1.86 69.59,14.85 124.32,37.12 54.75,22.26 69.58,30.61 71.45,51.03 1.86,20.41 -2.79,50.09 -31.55,37.1 -28.76,-12.98 -56.6,-17.62 -68.66,-17.62 -12.06,0 -52.88,-8.35 -69.58,-12.99 -16.7,-4.64 -39.9,-12.99 -50.1,-13.92 -10.2,-0.92 -25.05,-7.42 -35.26,-7.42 -10.21,0 -19.48,-0.93 -35.25,-4.64 -15.78,-3.71 -25.98,1.85 -25.98,1.85 0,0 14.84,15.78 35.25,25.06 20.41,9.27 21.34,20.41 26.91,22.26 5.57,1.86 70.51,6.5 96.49,14.85 25.98,8.35 41.75,34.33 40.83,44.53 -0.93,10.21 -12.08,19.07 -12.08,19.07 0,0 -48.41,-1.47 -73.33,0 -24.94,1.46 -45.47,-2.93 -67.47,-13.2 -22,-10.27 -86.52,-32.26 -104.12,-35.2 -17.59,-2.93 -32.26,-20.53 -46.93,-46.93 -14.67,-26.39 -52.79,-127.58 -77.72,-139.32 -24.93,-11.73 -68.94,-23.46 -80.66,-39.59 -11.73,-16.14 -20.54,-61.59 -26.4,-96.79 -5.86,-35.2 -45.46,-274.24 -66,-329.97 -20.52,-55.73 -57.19,-107.06 -80.65,-143.72 -23.47,-36.67 -10.26,-58.66 -17.6,-96.79 -7.33,-38.13 -7.33,-38.13 -7.33,-38.13 0,0 -16.14,-16.13 -24.93,-45.46 -8.8,-29.33 -48.4,-171.58 -48.4,-181.85 0,-10.27 -17.6,-8.8 -19.06,-38.13 -1.47,-29.33 -24.94,-114.39 -57.2,-171.58 -32.26,-57.24 -30.79,-107.04 -29.33,-139.34 1.47,-32.2 -13.2,-77.7 -38.13,-121.7 -24.93,-44 -49.86,-152.5 -65.99,-261 -16.13,-108.598 -38.13,-142.301 -79.19,-234.699 -41.07,-92.399 -66,-104.102 -52.8,-220 0,0 25.81,-132.199 49.62,-268.8987 h 876.55 c -7.49,7.8985 -15.06,14.6993 -22.67,20.0977"
      /><path
        id="path46"
        style="fill:#b8babb;fill-opacity:1;fill-rule:nonzero;stroke:none"
        d="m 5338.91,388.102 c -24.92,33.199 -21.48,67.796 -2.1,101.898 -15.4,11.699 -25.91,21.898 -25.91,27.199 0,19.301 -23.13,181.199 -30.85,212.102 -7.71,30.801 -11.56,46.301 -11.56,46.301 0,0 181.22,447.218 266.04,589.878 84.82,142.65 181.21,181.21 223.62,188.92 42.42,7.71 107.96,73.26 138.81,131.1 30.84,57.83 65.54,96.39 61.69,119.52 -3.86,23.13 7.71,134.94 11.57,150.37 3.85,15.42 -34.7,50.12 -88.68,-53.98 -53.98,-104.1 -50.12,-127.24 -50.12,-127.24 0,0 -80.98,11.57 -96.4,11.57 -15.42,0 -26.98,46.27 -15.42,84.82 11.56,38.56 7.71,96.4 34.7,134.95 26.99,38.56 73.26,127.24 104.11,150.37 30.84,23.14 80.96,53.98 84.82,65.55 3.85,11.57 38.55,38.55 -7.71,53.98 -46.27,15.42 -123.39,-57.83 -185.08,-100.25 -61.69,-42.41 -88.68,-73.26 -88.68,-73.26 0,0 -38.55,38.56 73.26,107.96 111.82,69.41 161.94,111.82 104.11,150.37 0,0 -107.97,-38.55 -150.38,-80.96 0,0 -61.68,-3.86 -92.53,-15.43 -30.84,-11.57 -92.53,-46.26 -104.1,-53.98 -11.57,-7.71 -77.12,-158.08 -96.39,-188.92 -19.28,-30.85 -7.72,-65.55 0,-88.69 7.7,-23.13 61.68,-119.52 38.55,-154.22 -23.13,-34.7 -46.27,-42.41 -65.54,-84.82 -19.28,-42.42 -142.66,-173.51 -169.65,-204.35 -26.99,-30.85 -138.81,-142.67 -138.81,-142.67 0,0 -3.85,42.42 -19.27,50.13 -15.43,7.71 0,134.95 -50.13,177.36 -50.12,42.41 -204.35,134.95 -354.72,119.53 -150.37,-15.43 -420.27,-15.43 -462.67,-15.43 -42.42,0 -138.81,7.72 -138.81,7.72 0,0 -169.65,-269.9 -161.94,-323.88 7.71,-53.98 -3.85,-96.39 -7.71,-138.8 -3.86,-42.42 11.57,-165.82 15.42,-196.62 3.87,-30.899 23.14,-196.7 19.28,-258.298 -3.85,-61.703 15.43,-246.8 30.85,-308.504 15.42,-61.699 46.27,-104.097 80.96,-146.496 34.71,-42.402 53.98,-73.3 92.54,-127.3 38.56,-53.903 69.41,-92.5004 61.69,-119.5004 C 4162.44,54.5 4158.4,30.5 4156.73,1.5 H 5434.3 c 29.93,121 10.68,251.102 -95.39,386.602"
      /><path
        id="path48"
        style="fill:#b8babb;fill-opacity:1;fill-rule:nonzero;stroke:none"
        d="M 7932.62,14.3008 C 7907.11,73 7899.45,85.6992 7891.8,78.1016 7884.15,70.4023 7741.3,328 7570.41,521.898 7399.5,715.699 7284.72,904.5 7251.56,1001.4 c -33.16,97 -33.16,219.39 -89.27,308.67 -56.12,89.28 -150.5,272.93 -160.7,267.83 0,0 -58.67,160.7 -91.83,158.15 0,0 12.75,40.81 -45.91,17.85 -58.67,-22.95 2.55,-249.97 28.05,-341.8 0,0 -58.66,127.54 -86.72,204.06 0,0 -94.37,56.12 -30.61,-183.65 63.77,-239.81 73.97,-255.11 71.42,-267.81 -2.55,-12.8 2.55,-89.3 2.55,-89.3 l -28.06,-2.6 c 0,0 -48.46,114.8 -102.03,170.95 -53.56,56.12 -135.19,66.32 -114.78,5.1 20.41,-61.25 33.16,20.41 68.87,-132.65 35.71,-153.001 48.47,-117.298 63.77,-163.2 15.3,-46 94.37,-99.5 132.64,-127.598 38.26,-28 124.98,-51.004 191.3,-132.601 66.33,-81.602 140.3,-201.5 181.11,-280.602 40.81,-79.097 153.04,-255.097 193.85,-392.8006 1.87,-6.2968 3.57,-12.09762 5.29,-17.8984 H 7939 c -2.72,5.10156 -4.93,9.3984 -6.38,12.8008"
      /><path
        id="path50"
        style="fill:#b8babb;fill-opacity:1;fill-rule:nonzero;stroke:none"
        d="m 9764.38,238.699 c -40.86,66 -75.43,144.5 -78.57,166.5 -3.14,22 -50.28,411.699 -59.71,572 -9.43,160.201 -9.43,534.181 9.43,581.321 18.85,47.14 65.99,100.57 75.42,153.99 9.43,53.42 0,94.28 34.57,150.84 34.57,56.57 87.99,122.56 113.13,166.56 25.13,43.99 37.7,91.13 40.85,103.7 3.15,12.57 -37.71,50.28 -109.99,-28.28 -72.28,-78.57 -81.71,-141.42 -141.41,-147.7 -59.71,-6.29 -100.57,-18.86 -116.28,0 -15.71,18.85 -81.71,84.84 -81.71,94.27 0,9.43 56.57,128.85 47.15,153.99 -9.43,25.14 -44,40.85 -47.15,9.43 -3.14,-31.43 -21.99,-53.43 -31.42,-69.14 -9.43,-15.71 -9.43,-15.71 -9.43,-15.71 0,0 -69.13,59.7 -69.13,87.99 0,28.28 18.85,157.12 -9.43,191.69 -28.28,34.57 -44,22 -44,22 l -9.42,-62.85 c 0,0 -15.72,153.98 -97.42,125.7 -9.4,-3.25 15.72,-78.56 15.72,-78.56 0,0 -31.43,-3.15 -25.15,-22 6.29,-18.86 22,-62.85 22,-103.7 0,-40.85 18.85,-66 25.14,-122.56 6.29,-56.57 40.85,-97.42 47.14,-141.42 6.28,-43.99 9.43,-106.84 21.99,-138.27 12.57,-31.43 56.57,-131.98 53.43,-160.27 -3.14,-28.28 18.85,-94.28 22,-138.27 3.14,-43.99 3.14,-72.28 -3.15,-106.85 -6.28,-34.56 0,-87.98 0,-138.27 0,-50.28 -18.85,-317.43 -25.13,-446.228 -6.29,-128.903 -34.58,-286 -34.58,-286 0,0 -72.27,-245.102 -84.84,-307.903 -12.57,-62.898 -6.29,-132 18.85,-198 5.52,-14.4998 18.77,-52.8982 36.47,-105.199 h 585.97 c -34.47,103.102 -71.27,204.699 -91.34,237.199"
      /><path
        id="path52"
        style="fill:#b8babb;fill-opacity:1;fill-rule:nonzero;stroke:none"
        d="m 13052,136.699 c 7.9,59.703 12.6,75.403 12.6,75.403 0,0 55,-7.801 67.5,6.296 12.6,14.102 0,18.903 -6.2,29.903 -6.3,11 -44,36.097 -37.8,55 6.3,18.801 18.9,190.097 -9.4,256.097 -28.3,66.004 -28.3,78.504 -70.7,130.403 -42.4,51.801 -64.4,106.801 -72.3,119.398 -7.8,12.602 -25.1,29.903 -34.5,51.801 -9.5,22 -20.5,37.801 -34.6,70.801 -14.1,33 -7.9,45.5 -26.7,75.399 -18.9,29.8 -28.3,45.5 -47.2,58.1 -18.8,12.6 -102.1,47.1 -102.1,47.1 0,0 48.7,389.73 61.3,410.15 12.6,20.43 139.8,278.12 144.6,289.12 4.7,10.99 -92.8,78.56 -95.9,89.56 -3.1,10.99 47.1,205.83 66,240.4 18.8,34.57 125.7,183.84 144.5,331.54 18.9,147.7 18.9,205.84 23.6,213.69 4.7,7.86 56.6,116.28 72.3,125.71 15.7,9.42 75.4,42.42 83.3,50.27 7.8,7.86 28.3,34.57 12.5,44 -15.7,9.43 -70.7,4.71 -109.9,-12.57 -39.3,-17.28 -100.6,-39.28 -111.6,-47.14 -11,-7.85 -28.3,9.43 -11,42.43 17.3,32.99 152.4,223.11 165,240.4 12.6,17.28 34.5,45.57 4.7,72.28 -29.9,26.71 -78.6,-59.71 -95.9,-69.14 -17.2,-9.43 -45.5,-50.28 -58.1,-64.42 -12.6,-14.14 -92.7,-91.13 -105.3,-106.85 -12.5,-15.71 -25.1,-31.42 -25.1,-31.42 0,0 7.8,105.28 23.6,130.41 15.7,25.14 111.5,208.98 116.2,237.26 4.8,28.29 -1.5,45.57 -34.5,42.43 -33,-3.14 -56.6,-51.85 -75.5,-81.71 -18.8,-29.85 -89.5,-139.84 -106.8,-158.69 -17.3,-18.86 -31.4,-31.43 -34.6,-53.43 -3.1,-21.99 -9.4,-51.85 -9.4,-47.14 0,4.72 -18.8,48.72 -15.7,72.28 3.1,23.57 14.1,95.85 18.8,114.71 4.8,18.85 28.3,81.7 28.3,97.41 0,15.72 23.1,76.25 -48.2,62.48 -33.7,-6.52 -35.6,-68.11 -58.3,-108.65 -22.7,-40.55 -24.4,-94.07 -37.3,-126.5 -13,-32.44 -26,-61.63 -16.3,-97.31 9.8,-35.68 24.4,-82.71 29.2,-126.5 4.9,-43.79 8.1,-129.74 8.1,-167.04 0,-37.3 4.9,-147.58 -3.2,-241.64 -8.1,-94.07 -8.1,-147.59 -21.1,-167.05 -13,-19.46 -43.8,-68.11 -68.1,-141.09 -24.3,-72.98 -50.3,-152.45 -50.3,-152.45 0,0 -40.5,-12.97 -50.2,-56.76 -9.8,-43.79 -128.2,-285.43 -147.6,-321.11 -19.5,-35.68 -55.2,-126.5 -68.1,-147.58 -13,-21.09 -47.1,-100.55 -50.3,-116.77 -3.3,-16.22 -97.3,-154.07 -126.5,-184.87 -29.2,-30.8 -134.6,-115.2 -129.8,-113.5 4.9,1.6 22.7,-37.3 26,-64.9 3.2,-27.598 -8.1,-55.098 1.6,-86.001 9.7,-30.801 13,-50.199 13,-50.199 0,0 -40.6,-90.898 -55.2,-246.5 -14.5,-155.699 -21,-209.301 -21,-228.699 0,-19.5 -1.7,-51.903 -1.7,-51.903 0,0 -51.9,-55.199 -77.8,-108.699 0,0 -146,-111.199 -252.3,-239.199 h 1502.1 c -7.7,47 -14.8,103.902 -10.7,135.199"
      /><g transform="scale(1.04098)" id="g54"><path
          id="path56"
          style="fill:#b8babb;fill-opacity:1;fill-rule:nonzero;stroke:none"
          d="m 16277,201.155 c -16,77.237 -73.9,292.801 -109.4,389.442 -35.3,96.544 -263.9,444.103 -292.9,524.603 -28.9,80.44 -141.6,286.42 -141.6,305.74 0,19.31 -19.3,9.65 -16,19.31 3.2,9.65 -48.3,48.27 -41.9,131.95 6.4,83.69 67.6,267.14 67.6,305.76 0,38.62 -22.5,51.5 -25.7,80.47 -3.3,28.96 0,83.68 -3.3,122.3 -3.1,38.63 -16,61.15 -32.2,93.34 -16,32.19 -70.8,148.05 -73.9,177.02 -3.3,28.97 -51.6,35.41 -83.8,-12.87 l 3.3,-45.07 c 0,0 -25.8,-25.74 0,-54.71 l 3.1,-106.21 c 0,0 -28.9,99.77 -70.8,86.9 -41.7,-12.87 -38.6,-83.68 -25.7,-154.49 12.9,-70.81 12.9,-109.43 3.3,-138.4 -9.7,-28.96 -29,-64.36 -35.5,-80.46 -6.4,-16.09 -9.6,-41.84 -19.3,-51.49 -9.6,-9.66 -93.3,-41.85 -109.4,-48.29 -16,-6.43 -70.8,0 -70.8,0 0,0 -148,128.75 -228.5,128.75 -80.4,0 -90.1,-35.41 -90.1,-35.41 0,0 64.3,-48.27 86.9,-90.12 22.5,-41.84 57.9,-45.06 80.4,-67.59 22.6,-22.52 67.6,-64.37 77.2,-86.9 9.7,-22.53 80.5,-90.11 128.9,-102.99 48.2,-12.87 112.5,-80.47 115.8,-109.43 3.2,-28.96 16,-51.5 16,-51.5 l -16,-22.52 c 0,0 38.6,-51.51 54.7,-80.47 16.1,-28.96 32.1,-164.11 41.8,-186.69 9.7,-22.48 25.8,-64.359 22.5,-80.401 -3.1,-16.139 16.2,-77.331 16.2,-93.372 0,-16.14 6.4,-90.108 3.1,-160.906 -3.1,-70.802 -3.1,-157.739 0,-180.314 3.3,-22.477 -41.8,-32.181 -16,-90.104 25.7,-57.927 45,-64.366 41.8,-112.589 -3.2,-48.317 -54.7,-86.937 -38.6,-112.683 16.1,-25.742 41.8,-64.358 51.4,-99.808 9.8,-35.352 3.3,-93.2789 -6.4,-109.41449 0,0 0,0 0,-0.09756 h 756.8 c -4.5,65.03405 -13.1,152.64705 -23,199.71405"
        /></g><path
        id="path58"
        style="fill:#7f7f81;fill-opacity:1;fill-rule:nonzero;stroke:none"
        d="m 8821.26,2479.1 c 8.63,12.56 21.97,25.12 21.97,25.12 0,0 86.34,7.07 108.32,13.35 l 1.57,-24.33 c 0,0 -13.35,-5.5 -20.41,-12.56 -7.07,-7.07 -9.42,-14.13 -14.92,-16.49 -5.49,-2.35 -22.76,-7.84 -29.04,-14.91 -6.27,-7.06 -14.13,-7.85 -21.97,-13.34 -7.85,-5.49 -47.09,-9.42 -62,-10.99 -14.92,-1.57 -39.25,-4.71 -39.25,-4.71 0,0 47.09,46.31 55.73,58.86"
      /><path
        id="path60"
        style="fill:#7f7f81;fill-opacity:1;fill-rule:nonzero;stroke:none"
        d="m 8765.53,2420.24 c 0,0 47.09,46.31 55.73,58.86 8.63,12.56 21.97,25.12 21.97,25.12 0,0 86.34,7.07 108.31,13.35 l 1.58,-24.33 c 0,0 -13.35,-5.5 -20.41,-12.56 -7.07,-7.07 -9.42,-14.13 -14.92,-16.49 -5.5,-2.35 -22.76,-7.84 -29.04,-14.91 -6.28,-7.06 -14.13,-7.85 -21.97,-13.34 -7.85,-5.49 -47.09,-9.42 -62,-10.99 -14.92,-1.57 -39.25,-4.71 -39.25,-4.71 z M 8015.33,1.5 h 1242.8 c -0.36,0.90234 -0.74,1.80078 -1.1,2.60156 C 9191.97,163.5 8743.06,836.898 8730.04,866.199 c -13.01,29.301 -52.05,52 -52.05,74.801 0,22.801 6.51,45.602 35.78,149.7 29.29,104 48.8,413.09 68.32,575.74 19.52,162.65 39.04,439.16 39.04,439.16 0,0 19.51,35.78 48.79,61.81 29.28,26.03 113.86,94.34 139.88,113.86 26.03,19.51 29.28,65.06 39.04,120.36 9.76,55.3 0,113.86 3.25,143.13 3.26,29.28 0,78.08 -26.02,149.64 -26.03,71.57 -66.73,132.26 -94.34,113.86 -39.04,-26.03 9.76,-146.39 9.76,-146.39 0,0 -61.81,-42.29 -68.32,-58.55 -6.5,-16.27 -91.08,-68.31 -113.85,-74.82 -22.78,-6.51 -94.34,-61.81 -110.6,-91.08 -16.27,-29.28 -39.04,-120.37 -48.8,-182.18 -9.76,-61.8 -81.15,-510.37 -81.15,-510.37 l -7.41,-50.06 c -6.67,-85.96 -21.46,-206.42 -54.12,-339.24 0,0 -8.49,-186.97 -67.98,-178.47 -59.49,8.5 -225.19,29.8 -246.44,-72.2 -21.24,-102 4.25,-161.502 25.49,-199.701 21.25,-38.301 -50.99,-123.199 -80.73,-153 -29.74,-29.699 -97.72,-127.5 -97.72,-169.898 0,-42.5 -4.25,-106.301 -4.25,-106.301 l 63.73,-84.898 c 0,0 -12.75,-123.301 -8.49,-178.5 4.24,-55.2 0,-63.7 -17,-123.2036 -8.32,-29.0976 -9.47,-59.1992 -8.52,-87.8984"
      /><path
        id="path62"
        style="fill:#7f7f81;fill-opacity:1;fill-rule:nonzero;stroke:none"
        d="m 826.328,685.102 c 9.465,137.097 80.402,373.598 61.492,505.998 -18.925,132.46 -37.843,193.94 -14.191,302.72 23.637,108.78 18.918,146.61 52.016,184.44 33.117,37.84 52.027,47.29 52.027,47.29 0,0 42.568,-75.66 66.218,-70.93 23.64,4.73 14.19,468.21 33.1,591.17 18.91,122.96 23.65,666.84 52.03,723.6 28.37,56.75 61.47,170.26 42.56,260.11 -18.92,89.86 -52.03,179.72 -56.75,222.29 -4.74,42.56 -75.68,160.79 -99.32,193.9 -23.647,33.11 -61.49,108.78 -61.49,108.78 0,0 61.49,42.56 99.32,4.73 l -75.668,151.34 c 0,0 18.91,56.75 104.048,14.18 85.12,-42.56 94.58,-99.32 118.24,-156.07 23.63,-56.75 122.95,-231.74 141.88,-264.84 18.91,-33.11 47.29,-28.38 80.39,-89.86 33.11,-61.48 66.22,-146.61 66.22,-146.61 0,0 56.75,170.26 132.42,151.34 75.67,-18.92 56.75,-28.38 23.65,-85.13 -33.1,-56.75 -80.41,-160.8 -89.86,-203.37 -9.46,-42.56 -42.56,-113.5 -75.68,-156.07 -33.1,-42.56 -75.66,-33.1 -85.13,-118.23 -9.44,-85.13 4.74,-524.96 9.47,-685.76 4.72,-160.8 33.1,-439.83 47.29,-515.5 14.19,-75.67 18.92,-189.18 33.11,-217.56 14.19,-28.37 75.67,-89.85 94.58,-160.79 18.93,-70.97 108.78,-189.17 99.32,-349.969 -9.45,-160.801 -23.64,-141.903 -23.64,-141.903 0,0 61.48,-108.796 47.29,-179.699 -14.19,-71 -33.1,-66.199 -23.65,-89.898 9.46,-23.602 75.68,-80.403 94.59,-127.699 0.24,-0.602 0.53,-1.102 0.77,-1.7 1.34,-52.601 3.33,-105.3 5.91,-158.101 -21.52,-37.801 -46.02,-80 -39.78,-95.5 8.19,-20.5 37.69,-2 45.4,-5.903 C 1787.02,84.5 1789.79,43 1792.77,1.5 H 643.438 c 86.554,259.602 176.445,590.102 182.89,683.602"
      /><path
        id="path64"
        style="fill:#7f7f81;fill-opacity:1;fill-rule:nonzero;stroke:none"
        d="m 5361.77,38.9023 c 23.65,9.4961 66.21,28.3985 66.21,66.1997 0,37.898 14.19,137.199 28.38,151.398 14.19,14.199 23.64,47.301 42.56,75.602 18.92,28.398 61.48,108.796 89.86,151.398 28.37,42.5 118.24,127.699 118.24,127.699 L 5735.39,649 c 0,0 104.05,345.301 137.15,543.9 33.11,198.62 47.3,491.84 47.3,515.49 0,23.65 -37.84,0 -33.11,37.83 4.73,37.84 28.38,42.57 18.92,75.67 -9.46,33.11 -33.11,104.05 -56.75,127.7 -23.65,23.65 -75.68,122.96 -94.59,151.34 -18.92,28.37 -47.29,203.36 -75.67,241.2 -28.38,37.83 -80.4,66.21 -80.4,80.4 0,14.18 47.29,47.29 94.59,14.18 47.29,-33.1 118.23,-118.23 118.23,-118.23 0,0 47.29,331.05 118.23,331.05 72.35,0 23.65,-113.5 4.74,-160.79 -18.92,-47.3 -18.92,-151.34 -18.92,-151.34 l 4.73,-28.38 28.37,28.38 c 0,0 23.65,141.88 61.49,141.88 37.83,0 80.4,-14.19 89.85,-56.75 0,0 70.94,9.46 85.13,-37.84 14.19,-47.29 14.19,-47.29 14.19,-47.29 0,0 52.02,0 70.94,-28.38 18.92,-28.38 33.11,-99.31 23.65,-118.24 -9.46,-18.91 -4.73,-132.41 -9.46,-179.71 -4.73,-47.29 -14.19,-137.15 -14.19,-137.15 l -23.64,-47.3 c 0,0 47.29,-9.45 33.1,-47.29 -14.19,-37.84 -42.57,-28.37 -42.57,-28.37 0,0 -18.91,-89.86 -14.18,-137.16 4.73,-47.29 42.56,-477.7 33.1,-562.8 -9.45,-85.102 -4.73,-387.801 -23.64,-454 0,0 307.4,-298 297.95,-350 -7.78,-42.801 -31.57,-162.3008 -58.18,-245.5 H 5340.79 c 6.18,19.3008 13.32,34.3984 20.98,37.4023"
      /><path
        id="path66"
        style="fill:#7f7f81;fill-opacity:1;fill-rule:nonzero;stroke:none"
        d="m 13462.1,7 c 100,51.9023 111.1,174.199 140.8,222.398 29.7,48.204 140.8,433.602 155.6,481.801 14.9,48.199 0,151.903 0,222.301 0,70.5 29.7,126 26,200.2 -3.7,74.1 -37.1,366.86 -37.1,366.86 0,0 70.4,14.82 100.1,25.94 0,0 -11.1,122.3 -37.1,151.95 -25.9,29.65 -129.7,133.42 -144.5,166.77 -14.8,33.35 -48.2,189.01 -48.2,211.24 0,22.24 -11.1,51.89 -11.1,51.89 0,0 -144.5,25.94 -159.4,29.65 0,0 -33.3,63 92.7,40.76 l 55.6,25.95 c 0,0 -185.3,11.11 -226.1,18.53 -40.7,7.41 -51.9,51.88 0,55.59 51.9,3.7 163.1,-3.71 163.1,-3.71 0,0 14.8,51.89 48.2,48.18 33.3,-3.71 88.9,-40.77 126,-40.77 37,0 103.7,0 103.7,0 0,0 -266.8,292.78 -270.5,352.07 0,0 18.5,70.42 85.2,-11.12 66.8,-81.52 103.8,-118.58 103.8,-118.58 0,0 -55.6,203.82 -18.5,196.41 37,-7.41 140.8,-255.72 163,-300.18 22.3,-44.48 66.7,-96.36 89,-103.77 22.2,-7.42 63,-14.83 74.1,-59.3 11.1,-44.47 14.8,-66.71 18.5,-111.18 3.7,-44.47 7.4,-166.77 22.3,-229.78 14.8,-63 14.8,-122.29 40.7,-177.89 26,-55.58 59.3,-103.76 55.6,-126 -3.7,-22.24 33.4,7.41 33.4,7.41 0,0 18.5,-159.36 22.2,-189.01 3.7,-29.64 40.8,-140.83 26,-237.21 -14.9,-96.3 33.3,-200.099 33.3,-285.298 0,-85.301 -51.9,-478.102 -48.2,-604.102 2.6,-86.301 19,-193.5 33.9,-283.5 h -821 c 3.1,2.19922 6.1,4.10156 8.9,5.5"
      /><path
        id="path68"
        style="fill:#7f7f81;fill-opacity:1;fill-rule:nonzero;stroke:none"
        d="m 14377.1,2435.62 c -15.3,2.43 -23.4,9.72 -30.7,12.15 -7.3,2.42 -20.3,8.9 -22.7,9.71 -2.4,0.81 1.6,7.29 13,9.72 11.3,2.43 121.4,-2.43 121.4,-2.43 0,0 -32.4,-26.72 -42.9,-33.2 -10.5,-6.47 -22.7,1.62 -38.1,4.05"
      /><path
        id="path70"
        style="fill:#7f7f81;fill-opacity:1;fill-rule:nonzero;stroke:none"
        d="m 14302.7,2542.5 c -8.1,-2.43 -25.1,-13.77 -27.6,-16.2 -2.4,-2.42 -17,-4.86 -20.2,-1.61 -3.3,3.23 -17,19.42 -19.4,20.23 -2.5,0.82 5.6,8.91 19.4,11.34 13.7,2.43 125.5,3.24 125.5,3.24 -6.5,-4.05 -17,-11.33 -25.1,-11.33 -8.1,0 -44.5,-3.25 -52.6,-5.67"
      /><path
        id="path72"
        style="fill:#7f7f81;fill-opacity:1;fill-rule:nonzero;stroke:none"
        d="m 14458.1,2464.77 c 0,0 -32.4,-26.72 -42.9,-33.2 -10.5,-6.47 -22.7,1.62 -38,4.05 -15.4,2.43 -23.5,9.72 -30.8,12.14 -7.3,2.43 -20.3,8.91 -22.7,9.72 -2.4,0.81 1.6,7.29 13,9.72 11.3,2.43 121.4,-2.43 121.4,-2.43 z m -77.7,94.73 c -6.5,-4.05 -17,-11.33 -25.1,-11.33 -8.1,0 -44.5,-3.25 -52.6,-5.67 -8.1,-2.43 -25.1,-13.77 -27.6,-16.2 -2.4,-2.42 -17,-4.86 -20.2,-1.62 -3.3,3.24 -17,19.43 -19.4,20.24 -2.5,0.82 5.6,8.91 19.4,11.34 13.8,2.43 125.5,3.24 125.5,3.24 z m 6.1,-2558 h 970.1 c 26.4,151.301 54.9,297.699 54.9,297.699 14.6,128.203 -13,141.203 -58.4,243.403 -45.5,102.3 -69.8,139.597 -87.7,259.699 -17.8,120.101 -45.4,240.199 -73,288.899 -27.6,48.7 -43.8,99 -42.2,134.71 1.6,35.7 3.3,90.89 -32.5,154.19 -35.7,63.29 -61.6,157.43 -63.2,189.89 -1.7,32.46 -21.1,30.84 -21.1,42.2 0,11.36 -43.9,168.79 -53.6,201.26 -9.7,32.46 -27.6,50.31 -27.6,50.31 0,0 0,0 -8.1,42.2 -8.1,42.2 6.5,66.54 -19.5,107.12 -26,40.58 -66.5,97.38 -89.3,159.06 -22.7,61.67 -66.5,326.22 -73,365.18 -6.5,38.95 -16.2,89.27 -29.2,107.12 -13,17.85 -61.7,30.84 -89.3,43.82 -27.6,12.98 -69.8,124.98 -86,154.19 -16.2,29.21 -32.5,48.69 -51.9,51.93 -19.5,3.25 -90.9,27.6 -115.3,38.96 -24.3,11.36 -47,16.23 -74.6,14.6 -27.6,-1.62 -81.2,0 -81.2,0 0,0 -12.3,-9.8 -13.3,-21.1 -1.1,-11.29 16.4,-40.04 45.1,-49.28 28.8,-9.24 100.7,-14.37 106.8,-16.43 6.2,-2.05 7.2,-14.37 29.8,-24.64 22.6,-10.27 39,-27.73 39,-27.73 0,0 -11.3,-6.16 -28.7,-2.05 -17.5,4.11 -27.8,5.13 -39.1,5.13 -11.3,0 -27.7,7.19 -39,8.22 -11.3,1.03 -36.9,10.27 -55.4,15.4 -18.5,5.13 -63.7,14.38 -77,14.38 -13.4,0 -44.2,5.13 -76,19.5 -31.8,14.38 -37,-18.48 -34.9,-41.07 2,-22.59 18.5,-31.83 79,-56.47 60.6,-24.64 95.5,-39.02 137.6,-41.07 42.1,-2.06 93.5,-40.05 101.7,-51.35 8.2,-11.29 1,-11.29 -9.3,-15.4 -10.2,-4.1 -32.8,-14.37 -48.2,-16.42 -15.4,-2.06 -107.8,-14.38 -134.5,-21.57 -26.7,-7.19 -83.2,-5.14 -83.2,-5.14 -95.5,58.53 -120.1,-30.42 -104.4,-56.51 15.6,-26.08 57.3,-57.38 109.5,-78.25 52.2,-20.87 62.6,-73.04 93.9,-93.9 31.3,-20.87 15.7,-41.74 41.8,-99.12 26,-57.39 109.5,-151.29 146,-166.94 36.5,-15.65 73.1,-83.48 135.7,-109.55 62.6,-26.09 57.4,-203.47 57.4,-203.47 0,0 -36.6,-67.81 -15.7,-93.9 20.9,-26.08 15.7,-140.85 15.7,-140.85 0,0 10.4,-130.43 10.4,-146.08 0,-15.65 -26.1,-83.47 -20.9,-119.99 5.2,-36.51 -46.9,-229.49 -46.9,-250.39 0,-20.9 -36.6,-151.298 -57.4,-276.498 -20.9,-125.203 -31.3,-521.703 -47,-563.402 -15.6,-41.801 -41.7,-198.3008 -41.7,-198.3008 -8.4,-5.8984 -16.8,-13.3984 -25.1,-22.1992"
      /><path
        id="path74"
        style="fill:#7f7f81;fill-opacity:1;fill-rule:nonzero;stroke:none"
        d="m 12080.1,429.398 c 27.6,36.704 23.8,75 2.4,112.801 17,12.903 28.6,24.102 28.6,30.102 0,21.301 25.6,200.5 34.2,234.699 8.5,34.102 12.8,51.199 12.8,51.199 0,0 -200.6,494.961 -294.4,652.841 -93.9,157.88 -200.6,200.55 -247.5,209.09 -47,8.53 -119.5,81.07 -153.7,145.08 -34.1,64.01 -72.5,106.68 -68.2,132.28 4.2,25.6 -8.6,149.35 -12.8,166.42 -4.3,17.06 38.4,55.47 98.1,-59.74 59.7,-115.21 55.5,-140.82 55.5,-140.82 0,0 89.6,12.81 106.7,12.81 17,0 29.8,51.2 17,93.87 -12.8,42.67 -8.5,106.68 -38.4,149.35 -29.8,42.67 -81.1,140.82 -115.2,166.42 -34.1,25.6 -89.6,59.74 -93.9,72.54 -4.2,12.8 -42.6,42.67 8.6,59.74 51.2,17.07 136.5,-64 204.8,-110.94 68.3,-46.94 98.1,-81.08 98.1,-81.08 0,0 42.7,42.67 -81,119.48 -123.8,76.81 -179.3,123.75 -115.3,166.42 0,0 119.5,-42.67 166.5,-89.61 0,0 68.2,-4.27 102.4,-17.07 34.1,-12.8 102.4,-51.2 115.2,-59.74 12.8,-8.53 85.3,-174.95 106.7,-209.09 21.3,-34.14 8.5,-72.54 0,-98.15 -8.6,-25.6 -68.3,-132.28 -42.7,-170.68 25.6,-38.4 51.2,-46.94 72.5,-93.88 21.4,-46.94 157.9,-192.02 187.8,-226.15 29.9,-34.14 153.6,-157.89 153.6,-157.89 0,0 4.3,46.94 21.3,55.48 17.1,8.53 0,149.34 55.5,196.28 55.5,46.94 226.2,149.35 392.6,132.28 166.4,-17.06 465.1,-17.06 512,-17.06 47,0 153.7,8.53 153.7,8.53 0,0 187.7,-298.7 179.2,-358.44 -8.5,-59.74 4.2,-106.68 8.5,-153.61 4.3,-46.95 -12.8,-183.46 -17,-217.66 -4.3,-34.1 -25.7,-217.598 -21.4,-285.898 4.3,-68.2 -17.1,-273.102 -34.1,-341.301 -17.1,-68.301 -51.2,-115.199 -89.6,-162.199 -38.4,-46.903 -59.8,-81.102 -102.4,-140.801 -42.7,-59.699 -76.9,-102.399 -68.3,-132.301 3.7,-12.8984 8.1,-39.3984 10,-71.5 h -1413.9 c -33.1,133.902 -11.8,277.898 105.5,427.898"
      /><g transform="scale(1.0501)" id="g76"><path
          id="path78"
          style="fill:#7f7f81;fill-opacity:1;fill-rule:nonzero;stroke:none"
          d="m 14877.8,14.8572 c 27,61.899 35.1,75.3241 43.1,67.2296 8.1,-7.9978 158.6,263.5022 338.7,467.7692 180.2,204.359 301.1,403.295 336.1,505.384 34.9,102.17 34.9,231.23 94.1,325.32 59.1,94.08 158.5,287.65 169.3,282.26 0,0 61.9,169.37 96.8,166.69 0,0 -13.5,43.01 48.4,18.81 61.8,-24.19 -2.7,-263.45 -29.6,-360.23 0,0 61.9,134.41 91.4,215.07 0,0 99.5,59.13 32.3,-193.57 -67.2,-252.7 -78,-268.83 -75.3,-282.27 2.7,-13.43 -2.7,-94.09 -2.7,-94.09 l 29.6,-2.67 c 0,0 51.1,120.96 107.5,180.1 56.5,59.14 142.5,69.9 121,5.38 -21.5,-64.52 -35,21.5 -72.6,-139.8 -37.6,-161.29 -51,-123.67 -67.2,-172.05 -16.1,-48.375 -99.4,-104.847 -139.8,-134.368 -40.3,-29.614 -131.7,-53.805 -201.6,-139.794 -69.9,-86.089 -147.9,-212.457 -190.9,-295.783 -43,-83.325 -161.3,-268.833 -204.3,-413.9604 -1.9,-6.6661 -3.7,-12.66627 -5.5,-18.85616 h -525.4 c 2.8,5.33432 5.1,9.90236 6.6,13.42876"
        /></g><path
        id="path80"
        style="fill:#7f7f81;fill-opacity:1;fill-rule:nonzero;stroke:none"
        d="m 10097.5,264 c 45.2,73 83.5,160 86.9,184.301 3.5,24.301 55.7,455.601 66.1,632.999 10.5,177.35 10.5,591.22 -10.4,643.39 -20.9,52.17 -73,111.29 -83.5,170.42 -10.4,59.12 0,104.34 -38.2,166.94 -38.3,62.6 -97.4,135.64 -125.24,184.33 -27.82,48.69 -41.73,100.86 -45.21,114.77 -3.48,13.91 41.74,55.65 121.75,-31.3 80,-86.95 90.4,-156.51 156.5,-163.47 66.1,-6.95 111.3,-20.86 128.7,0 17.4,20.87 90.4,93.91 90.4,104.35 0,10.43 -62.6,142.59 -52.2,170.41 10.5,27.82 48.7,45.22 52.2,10.44 3.5,-34.78 24.3,-59.13 34.8,-76.52 10.4,-17.39 10.4,-17.39 10.4,-17.39 0,0 76.5,66.08 76.5,97.38 0,31.31 -20.8,173.9 10.5,212.16 31.3,38.25 48.6,24.34 48.6,24.34 l 10.5,-69.56 c 0,0 17.4,170.42 107.8,139.12 10.4,-3.6 -17.4,-86.95 -17.4,-86.95 0,0 34.8,-3.48 27.8,-24.34 -6.9,-20.87 -24.3,-69.56 -24.3,-114.78 0,-45.21 -20.9,-73.03 -27.8,-135.63 -7,-62.61 -45.3,-107.82 -52.2,-156.51 -7,-48.69 -10.4,-118.25 -24.4,-153.03 -13.9,-34.78 -62.6,-146.07 -59.1,-177.37 3.5,-31.31 -20.8,-104.34 -24.3,-153.03 -3.5,-48.69 -3.5,-79.99 3.5,-118.25 6.9,-38.26 0,-97.38 0,-153.03 0,-55.65 20.8,-351.29 27.8,-493.889 6.9,-142.602 38.2,-316.5 38.2,-316.5 0,0 80,-271.199 93.9,-340.801 13.9,-69.598 7,-146.102 -20.8,-219.098 -6.1,-16.004 -20.8,-58.6012 -40.4,-116.402 h -648.49 c 38.19,114.102 78.89,226.602 101.09,262.5"
      /><path
        id="path82"
        style="fill:#7f7f81;fill-opacity:1;fill-rule:nonzero;stroke:none"
        d="m 6644.92,151.102 c -8.69,66.097 -13.91,83.5 -13.91,83.5 0,0 -60.86,-8.704 -74.77,6.898 -13.92,15.699 0,20.902 6.95,33.102 6.96,12.199 48.69,40 41.74,60.8 -6.96,20.899 -20.87,210.496 10.43,283.5 31.3,72.996 31.3,86.899 78.25,144.297 46.96,57.403 71.3,118.301 80,132.203 8.69,13.899 27.82,32.996 38.25,57.399 10.43,24.301 22.61,41.699 38.26,78.199 15.65,36.5 8.69,50.5 29.56,83.5 20.87,33 31.3,50.4 52.17,64.3 20.87,14 113.03,52.21 113.03,52.21 0,0 -53.9,431.26 -67.81,453.87 -13.92,22.6 -154.78,307.79 -159.99,319.97 -5.22,12.17 102.6,86.95 106.07,99.12 3.48,12.17 -52.16,227.8 -73.03,266.06 -20.87,38.25 -139.11,203.45 -159.98,366.92 -20.87,163.46 -20.87,227.8 -26.09,236.5 -5.22,8.69 -62.6,128.68 -79.99,139.11 -17.39,10.44 -83.47,46.95 -92.17,55.65 -8.69,8.69 -31.29,38.26 -13.91,48.69 17.39,10.43 78.26,5.22 121.73,-13.91 43.47,-19.13 111.3,-43.48 123.46,-52.17 12.18,-8.7 31.31,10.43 12.18,46.95 -19.13,36.52 -168.68,246.94 -182.59,266.06 -13.91,19.13 -38.26,50.43 -5.22,79.99 33.04,29.57 86.95,-66.08 106.08,-76.51 19.13,-10.43 50.43,-55.65 64.34,-71.3 13.91,-15.65 102.6,-100.86 116.51,-118.25 13.91,-17.39 27.82,-34.78 27.82,-34.78 0,0 -8.69,116.52 -26.08,144.34 -17.39,27.82 -123.47,231.28 -128.69,262.58 -5.21,31.3 1.74,50.43 38.26,46.95 36.52,-3.48 62.6,-57.38 83.47,-90.42 20.87,-33.04 99.12,-154.77 118.25,-175.64 19.13,-20.87 34.78,-34.78 38.26,-59.12 3.48,-24.35 10.44,-57.39 10.44,-52.17 0,5.21 20.86,53.91 17.38,79.99 -3.47,26.08 -15.65,106.08 -20.87,126.94 -5.21,20.87 -31.3,90.43 -31.3,107.82 0,17.39 -25.5,84.39 53.33,69.15 37.34,-7.22 39.49,-75.38 64.62,-120.26 25.12,-44.87 26.92,-104.1 41.28,-140 14.36,-35.89 28.72,-68.2 17.94,-107.69 -10.76,-39.49 -26.92,-91.54 -32.3,-139.99 -5.39,-48.46 -8.98,-143.6 -8.98,-184.88 0,-41.28 -5.38,-163.33 3.59,-267.43 8.98,-104.1 8.98,-163.33 23.34,-184.87 14.35,-21.53 48.46,-75.38 75.38,-156.15 26.92,-80.77 55.64,-168.72 55.64,-168.72 0,0 44.87,-14.35 55.64,-62.82 10.77,-48.46 141.8,-315.89 163.33,-355.38 21.54,-39.48 61.03,-140 75.38,-163.33 14.36,-23.33 52.06,-111.28 55.64,-129.23 3.59,-17.94 107.7,-170.51 140,-204.61 32.31,-34.1 148.98,-127.44 143.59,-125.64 -5.38,1.8 -25.12,-41.3 -28.72,-71.8 -3.59,-30.5 8.98,-61 -1.79,-95.1 -10.77,-34.098 -14.36,-55.699 -14.36,-55.699 0,0 44.87,-100.5 61.03,-272.801 16.15,-172.301 23.33,-231.5 23.33,-253.098 0,-21.5 1.8,-57.402 1.8,-57.402 0,0 57.43,-61 86.14,-120.199 0,0 161.61,-123.102 279.26,-264.801 H 6633.07 c 8.52,52 16.42,114.902 11.85,149.602"
      /><path
        id="path84"
        style="fill:#7f7f81;fill-opacity:1;fill-rule:nonzero;stroke:none"
        d="m 2683.28,231.5 c 18.53,89 85.28,337.5 126.07,448.699 40.78,111.203 304.05,511.701 337.42,604.401 33.37,92.7 163.16,330.01 163.16,352.26 0,22.25 22.24,11.13 18.54,22.25 -3.71,11.12 55.62,55.62 48.2,152.03 -7.42,96.41 -77.87,307.76 -77.87,352.26 0,44.49 25.96,59.32 29.67,92.7 3.7,33.37 0,96.4 3.7,140.9 3.71,44.5 18.54,70.45 37.08,107.53 18.54,37.08 81.58,170.57 85.29,203.94 3.7,33.37 59.32,40.79 96.4,-14.83 l -3.7,-51.91 c 0,0 29.66,-29.67 0,-63.04 l -3.71,-122.36 c 0,0 33.37,114.95 81.57,100.11 48.21,-14.83 44.5,-96.4 29.67,-177.98 -14.83,-81.58 -14.83,-126.07 -3.71,-159.44 11.12,-33.37 33.37,-74.16 40.79,-92.7 7.41,-18.54 11.12,-48.21 22.25,-59.33 11.12,-11.12 107.53,-48.2 126.07,-55.62 18.54,-7.42 81.57,0 81.57,0 0,0 170.57,148.32 263.27,148.32 92.7,0 103.82,-40.79 103.82,-40.79 0,0 -74.16,-55.62 -100.11,-103.82 -25.96,-48.21 -66.75,-51.91 -92.7,-77.87 -25.96,-25.96 -77.87,-74.16 -88.99,-100.12 -11.13,-25.95 -92.7,-103.82 -148.32,-118.65 -55.62,-14.83 -129.78,-92.7 -133.49,-126.07 -3.71,-33.38 -18.54,-59.33 -18.54,-59.33 l 18.54,-25.96 c 0,0 -44.5,-59.32 -63.04,-92.7 -18.54,-33.37 -37.08,-189.1 -48.2,-215.08 -11.12,-25.9 -29.66,-74.1 -25.96,-92.7 3.71,-18.5 -18.54,-89 -18.54,-107.498 0,-18.602 -7.41,-103.801 -3.7,-185.403 3.7,-81.597 3.7,-181.699 0,-207.699 -3.71,-25.898 48.2,-37 18.54,-103.801 -29.67,-66.699 -51.91,-74.097 -48.21,-129.797 3.71,-55.601 63.04,-100.101 44.5,-129.703 -18.54,-29.699 -48.2,-74.199 -59.33,-115 -11.13,-40.8006 -3.71,-107.4998 7.42,-126.09744 0.02,0 0.05,0 0.07,-0.10156 h -871.89 c 5.19,74.9023 15.1,175.801 26.4,230"
      /><path
        id="path86"
        style="fill:#272425;fill-opacity:1;fill-rule:nonzero;stroke:none"
        d="m 6111.68,21.5 c -25.12,62.8008 -282.64,282.602 -358.01,326.602 -75.38,43.898 -81.66,50.199 -125.62,56.5 -43.97,6.296 -194.72,119.3 -219.84,125.597 -25.12,6.301 -213.55,119.403 -213.55,119.403 0,0 -7.15,141.898 -16.22,161.8 -9.07,20 -23.6,36.297 -23.6,36.297 0,0 9.08,32.703 7.26,39.903 -1.81,7.3 110.71,217.798 117.97,259.598 0,0 14.51,-36.3 49,-38.2 34.48,-1.8 78.03,45.4 92.56,78.1 14.51,32.7 56.25,134.28 56.25,172.39 0,38.11 -21.78,56.26 -49,61.71 -27.22,5.44 -45.37,-1.82 -45.37,-1.82 0,0 29.04,78.04 32.67,145.18 3.63,67.15 18.15,161.52 23.6,161.52 4.81,0 451.63,196.13 581.9,260.08 2.52,-28.12 8.65,-85.41 21.54,-156.31 18.44,-101.44 46.11,-136.01 133.71,-191.35 87.6,-55.32 39.19,-129.09 39.19,-129.09 0,0 0,0 -36.89,-13.84 -36.88,-13.83 -11.52,-46.1 -13.83,-55.33 -2.3,-9.22 -6.91,-73.76 -18.44,-119.88 -11.53,-46.1 32.27,-163.66 32.27,-163.66 -9.22,41.5 -11.52,136 -11.52,136 23.05,-20.74 48.41,-170.6 48.41,-170.6 53.02,46.1 -2.31,179.83 -2.31,179.83 23.06,-25.36 32.28,-99.13 32.28,-99.13 11.52,29.97 -6.92,66.85 -20.75,101.43 -13.83,34.58 0,94.52 27.66,129.1 27.66,34.58 -20.74,71.46 -20.74,71.46 41.49,106.05 -59.94,147.55 -133.72,225.93 -60.11,63.87 -63.58,210.39 -62.81,262.45 9.28,4.72 16.1,8.42 19.26,10.58 0,0 -18.15,25.4 -27.22,30.85 -9.08,5.44 -1074.37,593.44 -1092.52,602.51 -18.15,9.08 -72.58,-41.74 -117.96,-59.89 -45.37,-18.14 -909.21,-332.1 -921.92,-344.8 -12.7,-12.71 -7.25,-34.49 7.26,-43.56 14.52,-9.08 509.96,-306.7 509.96,-306.7 0,0 -29.04,-137.93 -32.66,-166.97 -3.64,-29.03 -14.52,-98 -12.71,-116.14 1.82,-18.15 3.63,-39.93 3.63,-39.93 0,0 -39.92,18.15 -78.04,-25.41 -38.11,-43.55 -21.77,-74.41 -21.77,-127.03 0,-52.63 -10.89,-99.82 -5.45,-107.08 5.45,-7.25 41.74,-96.2 88.93,-94.4 47.18,1.8 59.88,14.6 59.88,14.6 0,0 18.15,-47.2 18.15,-52.7 0,-5.4 -87.11,-121.6 -108.88,-163.3 -21.78,-41.8 -79.86,-85.3 -90.75,-99.8 -10.88,-14.5 -48.99,0 -48.99,0 0,0 -199.63,49 -241.38,41.699 0,0 -163.33,61.701 -190.55,70.801 -27.22,9.1 -83.48,30.8 -88.92,45.4 -5.44,14.5 -29.04,76.2 -25.41,90.7 3.63,14.5 36.29,38.1 25.41,105.26 -10.89,67.15 -49,134.3 -49,134.3 0,0 -110.71,18.15 -172.41,18.15 -61.7,0 -134.29,-34.49 -159.7,32.67 -25.41,67.14 -74.41,263.14 -105.26,312.14 -30.85,49 -154.26,212.33 -143.38,263.14 10.9,50.82 1.82,205.08 0,284.93 0,0 65.34,-16.33 72.6,128.85 7.26,145.18 -7.26,259.52 14.52,279.48 21.78,19.96 98,92.56 103.44,130.67 5.45,38.11 1.82,165.15 19.97,201.44 18.14,36.29 21.77,112.52 36.29,134.3 14.52,21.78 88.93,90.74 132.48,123.4 43.56,32.67 74.41,78.04 81.67,85.3 7.26,7.26 23.6,47.19 14.52,117.96 -9.07,70.78 9.08,101.63 5.44,110.71 -3.63,9.07 -18.15,23.59 -14.51,32.66 3.62,9.07 50.81,85.3 45.36,128.85 -5.44,43.55 -101.62,50.82 -123.4,29.04 -21.78,-21.77 -21.78,-21.77 -21.78,-21.77 0,0 -74.41,38.1 -96.18,36.28 -21.78,-1.81 -83.49,3.64 -110.71,-16.32 -27.22,-19.96 -43.55,-45.37 -43.55,-45.37 0,0 -58.08,21.77 -85.3,10.88 -27.22,-10.88 -56.26,-36.29 -63.52,-34.47 -7.26,1.81 -58.07,-1.82 -78.04,-18.16 -19.96,-16.33 -47.18,-92.55 -56.25,-130.66 -9.08,-38.11 -26.89,-175.31 -26.89,-175.31 0,0 -71.78,19.58 -143.56,-156.62 0,0 -78.31,-84.82 -182.72,-143.56 -104.41,-58.72 -404.58,-176.18 -508.99,-476.36 -104.41,-300.17 -169.66,-450.26 -215.34,-495.94 -45.68,-45.68 -221.87,-319.75 -313.22,-574.25 -91.36,-254.49 -176.2,-404.62 -176.2,-404.62 0,0 -97.88,-13 -110.93,-71.7 -13.05,-58.8 13.05,-306.701 -13.05,-404.599 -26.1,-97.899 -78.31,-215.399 -97.88,-267.602 -19.58,-52.199 -13.06,-195.699 0,-234.898 7.09,-21.301 8.43,-102.4026 21.79,-179.301 h 5020.7 c -3.32,7.69922 -6.28,14.6992 -8.41,20"
      /><path
        id="path88"
        style="fill:#272425;fill-opacity:1;fill-rule:nonzero;stroke:none"
        d="m 10422.1,271.898 c -213.6,42.403 -326.7,72.204 -326.7,72.204 0,0 0,37.699 -58.1,36.097 -58.06,-1.597 -125.58,-1.597 -125.58,-1.597 l -21.99,-20.403 c 0,0 -138.18,14.203 -157.02,9.5 -18.85,-4.797 -21.99,86.301 -23.55,97.301 -1.58,11 14.13,6.301 14.13,6.301 0,0 -87.94,157 -102.07,168 -14.14,11 -29.83,28.301 -29.83,28.301 0,0 -3.15,89.5 10.98,103.597 14.14,14.102 58.1,147.602 53.4,155.5 -4.72,7.801 28.26,-25.199 56.52,-12.597 28.27,12.597 43.97,73.796 45.54,86.398 1.57,12.5 0,54.9 9.42,70.6 9.42,15.7 12.56,44 7.85,61.3 -4.7,17.2 -31.4,81.6 -39.25,83.2 -7.85,1.6 3.14,31.4 3.14,48.68 0,17.27 10.99,50.24 14.13,58.09 3.14,7.85 -1.57,47.11 -3.14,54.96 -1.57,7.85 -3.14,37.69 1.57,50.25 4.71,12.56 -7.85,56.53 -7.85,56.53 l -9.42,28.27 36.12,-37.69 c 0,0 -6.29,23.56 -9.43,34.55 -3.14,10.98 14.13,10.98 14.13,10.98 l -15.7,28.27 c 0,0 -48.68,98.93 -56.53,106.78 -7.85,7.85 -25.12,48.67 -40.82,56.53 -15.71,7.85 -78.52,54.96 -86.37,67.52 -7.85,12.56 -4.71,31.41 -23.55,42.4 -18.84,10.99 -32.98,18.84 -69.09,31.4 -36.12,12.57 -81.66,25.13 -114.63,29.84 -32.98,4.7 -95.79,0 -114.64,1.57 -18.84,1.57 11,43.96 83.23,32.97 0,0 -61.24,25.13 -147.61,-25.12 0,0 -75.37,-7.85 -80.08,-7.85 -4.71,0 14.14,18.84 59.67,32.97 0,0 -75.37,0 -131.9,-69.09 0,0 -43.96,-72.23 -53.39,-72.23 -9.42,0 -3.14,37.69 -3.14,37.69 0,0 -39.25,-50.25 -47.11,-51.82 -7.85,-1.57 -43.96,-31.41 -56.53,-42.4 -12.56,-10.99 -21.98,-6.28 -31.4,-31.4 -9.42,-25.13 -20.41,-4.72 -37.69,-28.27 -17.27,-23.56 -39.26,-37.69 -45.53,-58.1 -6.28,-20.42 -9.42,-18.84 -12.57,-45.54 -3.14,-26.69 -3.14,-21.98 -17.27,-47.1 -14.13,-25.13 -29.83,-51.82 -21.98,-65.96 7.85,-14.13 15.7,-32.97 20.41,-53.38 4.71,-20.42 0,-9.42 12.56,-39.26 12.57,-29.84 20.42,-75.37 21.98,-98.93 1.58,-23.55 7.86,-33.01 7.86,-33.01 0,0 -32.98,-32.9 -34.55,-75.3 -1.57,-42.4 15.7,-73.8 14.14,-113.1 -1.58,-39.3 -9.43,-59.698 6.28,-75.398 15.7,-15.703 42.39,-25.101 56.52,-29.8 14.13,-4.7 34.55,-7.903 34.55,-7.903 0,0 21.98,-67.5 32.98,-83.199 10.99,-15.699 17.27,-75.301 31.4,-95.801 14.13,-20.398 15.7,-100.5 20.41,-113 4.72,-12.597 7.86,-28.301 7.86,-28.301 0,0 -17.28,-20.398 -20.42,-25.097 -3.14,-4.699 -42.39,-158.602 -47.1,-193.199 -4.72,-34.5 7.85,-34.5 7.85,-34.5 0,0 -21.99,-23.602 -34.55,-20.403 -12.56,3.102 -169.59,128.703 -221.41,141.301 -51.82,12.602 -97.35,36.102 -95.78,55 1.57,18.801 -3.14,95.801 -4.71,111.5 -1.57,15.699 -89.51,199.398 -103.64,235.5 -14.13,36.102 -15.7,61.199 -34.55,70.699 -18.84,9.403 -56.52,21.903 -81.65,14.102 -25.12,-7.899 -56.53,-18.801 -75.37,-12.602 -18.84,6.301 -87.94,61.301 -138.19,73.801 -50.24,12.6 -75.37,18.9 -87.93,28.3 -12.56,9.4 -200.99,285.78 -240.25,331.32 -39.26,45.54 -153.89,257.52 -175.87,284.22 -21.99,26.69 -87.93,128.76 -102.07,135.04 -14.13,6.28 -31.4,42.4 -50.24,50.25 -18.85,7.85 -95.79,149.17 -105.21,200.99 -9.42,51.82 -20.41,113.06 -18.85,144.47 1.58,31.4 -10.99,111.49 -10.99,130.33 0,18.85 -4.71,48.67 -4.71,48.67 l -111.49,7.86 c 0,0 -29.83,136.61 -43.96,177.44 -14.13,40.82 -50.25,73.8 -69.09,89.5 -9.87,8.23 -28.36,26.76 -47.12,41.9 5.1,11.53 9.95,23.38 14.31,35.74 62.82,177.97 38.39,526.92 -6.97,593.21 l -170.99,52.34 c 0,0 -3.49,314.06 -45.36,383.85 l -199.89,-124.26 c 17,225.68 -14.84,440.47 -173.04,509.92 -336.34,147.67 -238.97,-238.87 -366.79,-377.68 -8.48,7.46 -19.47,12.12 -31.64,12.12 -20.56,0 -37.99,-12.95 -44.89,-31.09 -12.61,3.41 -41.43,2.02 -96.16,-42.55 -79.32,-64.58 -92.91,-112.17 -122.37,-141.62 -29.45,-29.46 -40.78,-73.64 -61.18,-71.38 -20.39,2.26 -37.38,-18.13 -41.92,-65.72 0,0 18.13,47.59 53.25,53.26 0,0 -31.72,-24.93 -26.06,-60.05 5.66,-35.12 14.73,-33.99 -4.53,-62.32 0,0 37.39,19.27 27.2,61.19 -10.21,41.91 23.79,57.78 44.18,70.24 20.4,12.46 55.52,20.39 63.44,31.72 7.94,11.34 -46.45,-65.71 -50.98,-117.82 -4.53,-52.12 -2.26,-87.25 -14.73,-94.04 0,0 29.46,18.12 31.73,69.11 2.26,50.98 31.72,92.9 44.18,108.76 10.99,13.99 25.47,32.34 28.75,38.83 -3.71,-12.79 -21.48,-88.69 -17.41,-128.33 0,0 5.66,-62.32 -6.81,-71.38 0,0 23.8,15.86 23.8,56.65 0,40.79 11.33,111.03 21.52,128.02 10.2,17 17,19.27 40.79,44.19 23.79,24.93 33.99,38.52 46.45,58.92 9.43,15.42 34.35,50.86 46.95,71.67 4.69,-1.53 9.6,-2.56 14.8,-2.56 26.6,0 48.15,21.56 48.15,48.15 0,6.6 -1.34,12.89 -3.75,18.62 6.06,5.07 12.23,10.58 18.5,16.85 45.75,45.75 88.46,372.14 176.92,381.29 88.45,9.15 210.47,-30.5 234.87,-85.4 24.41,-54.92 91.51,-109.82 79.31,-301.99 -3.2,-50.37 -8.51,-99.6 -14.58,-145.5 l -542.72,-337.37 59.32,-1078.25 401.28,212.86 c 0,0 202.39,-13.96 226.82,-97.7 0,0 51.93,61.1 75.77,100.4 12.65,-2 25.38,-2.37 35.89,0.79 34.9,10.47 55.84,-31.4 66.31,-55.83 10.46,-24.43 3.49,-122.14 3.49,-122.14 0,0 52.34,-181.45 45.36,-184.94 -6.98,-3.48 31.4,-219.83 27.91,-233.79 -3.49,-13.96 10.48,-94.21 10.48,-94.21 0,0 -69.8,0 -118.65,-3.5 -48.85,-3.48 -97.71,-38.37 -97.71,-38.37 0,0 27.92,-31.41 76.78,-118.65 48.84,-87.24 94.21,-108.17 87.23,-181.45 -6.98,-73.28 -3.49,-90.72 -3.49,-90.72 0,0 104.68,-129.08 153.54,-181.48 48.85,-52.3 115.15,-97.7 139.58,-115.099 24.42,-17.5 52.34,-233.801 143.06,-429.199 90.73,-195.403 170.98,-331.5 212.86,-376.903 41.87,-45.398 69.79,-80.3006 143.07,-153.4998 6.92,-7 14.5,-15.0976 22.36,-23.6992 h 3057.94 c -97.2,106.402 -240.8,240.902 -389,270.398"
      /><g transform="scale(1.06282)" id="g90"><path
          id="path92"
          style="fill:#272425;fill-opacity:1;fill-rule:nonzero;stroke:none"
          d="m 16289.8,5835.63 10.2,15.09 c 0,0 -4.2,-5.42 -10.2,-15.09"
        /></g><g transform="scale(1.06556)" id="g94"><path
          id="path96"
          style="fill:#272425;fill-opacity:1;fill-rule:nonzero;stroke:none"
          d="m 14585.9,18.2049 c -5.8,53.0239 -30.3,143.9641 -17.1,187.5081 13.2,43.547 81.5,149.595 85.2,170.429 3.8,20.833 24.6,151.468 -3.7,185.535 -28.5,34.068 62.4,45.421 58.6,60.532 -3.7,15.203 -49.3,62.504 -45.4,96.568 3.7,34.162 17,90.94 24.6,123.13 7.6,32.191 24.6,94.691 20.8,121.155 -3.7,26.56 9.5,39.798 20.8,66.258 11.4,26.56 15.2,32.19 26.5,71.98 11.4,39.79 15.2,53.01 34.2,71.94 18.8,18.93 88.9,140.11 102.2,181.77 13.2,41.66 17,115.5 39.8,145.79 22.7,30.3 96.5,104.14 96.5,157.16 0,53.01 -17.1,136.33 -11.3,147.68 5.6,11.37 30.3,104.15 41.6,143.91 11.4,39.75 41.6,132.54 36,166.63 -5.7,34.07 -22.7,81.41 -13.2,107.91 9.4,26.52 35.9,96.57 51,100.36 15.2,3.79 72,45.45 85.2,73.84 13.3,28.4 43.6,96.57 47.4,138.22 3.8,41.66 30.3,121.18 47.3,136.33 17.1,15.15 43.6,20.83 62.5,47.34 19,26.5 89,200.7 89,261.29 0,60.59 28.4,147.69 32.2,160.94 3.7,13.25 140.1,321.89 145.8,344.61 5.6,22.72 18.9,49.22 41.7,64.37 22.7,15.15 128.6,88.99 145.7,111.71 17.1,22.72 30.3,47.34 24.6,58.69 -5.6,11.37 -3.7,56.81 -13.2,70.07 -9.5,13.25 -5.7,54.91 -13.3,62.48 -7.6,7.58 -1.8,32.2 -18.9,34.08 -17,1.9 -17,13.25 -20.8,18.94 -3.8,5.68 -32.2,17.04 -39.7,26.51 -7.6,9.46 3.7,26.51 3.7,41.65 0,15.15 -22.7,70.06 -9.5,85.21 13.3,15.14 47.3,45.44 47.3,45.44 0,0 108.4,313.75 168.2,495.11 84.2,76.92 274.1,305.89 306.5,362.54 35.3,61.81 24.2,158.92 13.2,198.66 -10.4,37.32 -55.8,131.1 -72.2,158.79 30,7.26 52.4,34.1 52.4,66.34 0,25.87 -14.6,48.11 -35.7,59.74 -1.1,1.29 -1.9,2.06 -1.9,2.06 0,0 0,33.11 4.4,61.8 4.4,28.69 0,39.73 -15.4,141.26 -11.5,75.56 21,140.05 38.4,168.14 l -40.6,-59.99 c -2.2,13.25 -17.7,39.73 -33.2,83.88 -15.3,44.14 -55.1,105.94 -112.5,125.81 -57.3,19.86 -83.9,70.62 -83.9,70.62 -24.2,-28.69 -2.1,-68.41 -2.1,-68.41 -42,35.31 -86.2,4.41 -86.2,4.41 35.4,4.41 70.7,-59.6 70.7,-59.6 -52.9,59.6 -81.7,19.87 -81.7,19.87 35.3,8.83 61.8,-52.97 61.8,-52.97 -33,-4.42 -61.8,28.69 -61.8,28.69 -4.4,-30.91 59.6,-55.18 59.6,-55.18 -68.4,-8.83 -79.5,26.49 -79.5,26.49 -10.9,-37.53 55.2,-44.15 55.2,-44.15 63.7,6.37 118,-60.5 143.4,-98.42 -25.7,24.11 -70.6,25.58 -70.6,25.58 70.7,-4.41 97.2,-134.63 97.2,-134.63 -30.9,59.59 -68.4,68.42 -68.4,68.42 28.7,-6.63 68.4,-97.12 83.9,-121.39 15.4,-24.29 33.1,-90.5 39.7,-123.62 1,-5.24 2.9,-11.34 5.1,-17.77 -13.9,-12.52 -22.8,-30.47 -22.8,-50.64 0,-36.08 28,-65.31 63.5,-67.92 3.2,-15.06 9.3,-31.29 20.4,-42.45 26.5,-26.48 53,-101.52 59.6,-165.54 6.6,-64 -26.5,-169.94 -114.8,-275.89 -57.3,-68.76 -130.2,-140.1 -174.4,-181.86 9,27.99 15.7,49.75 19,61.91 22.7,83.3 202.6,569.91 202.6,569.91 0,0 -213.9,-284.01 -244.2,-293.48 -30.3,-9.46 -115.5,26.52 -140.2,28.41 -24.5,1.89 -249.9,85.19 -259.4,85.19 -9.3,0 -227.2,-287.8 -249.9,-338.92 -22.7,-51.11 -109.8,-293.48 -109.8,-293.48 0,0 -81.4,-81.42 -73.8,-111.71 7.6,-30.3 77.6,-85.2 77.6,-85.2 0,0 104.2,-15.15 157.2,-34.08 53,-18.94 123,-73.85 174.2,-75.74 51.1,-1.9 142,-45.45 142,-45.45 l -49.2,-151.47 c 0,0 -13.4,28.4 -34.1,11.36 -20.8,-17.03 -34.2,-64.37 -43.5,-68.16 -9.5,-3.79 -77.7,-53.02 -92.9,-56.8 -15.1,-3.79 -49.2,-15.16 -62.5,-53.02 -13.2,-37.87 -18.9,-123.07 -20.8,-160.94 -1.9,-37.87 1.9,-54.91 -17,-98.46 -18.9,-43.55 -151.4,-344.61 -151.4,-344.61 0,0 -1107.7,-301.05 -1219.4,-359.75 -111.8,-58.69 -299.2,-223.42 -301.2,-319.98 -1.8,-96.57 32.2,-225.33 41.7,-253.73 9.5,-28.4 41.7,-115.5 36,-138.22 -5.7,-22.72 -18.9,-35.98 -20.8,-54.91 -1.9,-18.94 1.9,89 -43.5,177.99 -45.5,88.99 -66.3,149.58 -81.5,142.01 -15.1,-7.59 -34.1,32.18 -39.8,49.22 -5.6,17.04 -18.9,45.44 -51,39.76 -32.2,-5.68 -49.3,-7.57 -70.1,5.68 -20.9,13.26 -28.4,26.51 -54.9,18.94 -26.5,-7.58 -37.9,-13.25 -62.5,-17.05 -24.6,-3.78 -126.8,1.9 -155.3,-11.35 -28.4,-13.26 -41.6,-22.72 -64.3,-32.19 -22.8,-9.47 -69.9,-28.91 -69.9,-28.91 0,0 -64.7,-5.89 -94.2,-23.54 -29.4,-17.67 -111.8,-88.29 -141.2,-117.73 -29.4,-29.43 -47.2,-17.65 -76.5,-52.96 -29.5,-35.33 -41.2,-88.3 -47.1,-123.61 -5.9,-35.31 11.8,-64.74 -11.8,-117.72 -23.5,-52.97 -35.3,11.78 -23.5,-52.97 11.7,-64.75 0,-82.4 -17.7,-123.61 -17.6,-41.19 5.9,-41.19 17.7,-94.16 11.7,-52.98 5.8,-100.06 35.3,-123.61 29.4,-23.55 64.7,-64.74 64.7,-64.74 0,0 -35.3,-35.32 5.9,-105.95 41.2,-70.64 70.6,-129.49 100.1,-147.15 29.3,-17.65 164.8,-47.08 164.8,-47.08 0,0 -29.5,-23.55 -123.6,-41.2 -94.2,-17.66 -359.1,-35.32 -394.4,-53.02 -35.3,-17.64 -211.9,0 -235.4,-70.57 -23.6,-70.667 -88.3,-117.778 -64.8,-194.268 0,0 -105.9,5.914 -188.3,41.202 -48.1,20.646 -118.1,61.188 -173.9,89.06 -43,141.426 -162.1,231.136 -205,320.886 -52.8,110.34 -81.6,201.51 -72,225.49 9.6,23.99 100.7,81.58 86.4,143.95 -1.5,6.59 -3.7,25.66 -6,47.76 1.6,0.86 3.1,1.95 4.8,3.52 37.6,35.31 36.2,114.26 28.7,128.02 -9.5,17.68 -30.7,22.77 -45.7,24.08 -4.5,18.81 -13.3,38.02 -29.8,50.9 -19.3,15.02 -215.9,28.78 -249.5,-43.18 0,0 -38.4,-134.34 -28.8,-191.92 9.6,-57.57 -19.2,-105.55 4.8,-163.13 24,-57.57 67.1,-427 100.7,-508.56 22.1,-53.393 40,-151.841 72.6,-225.698 -30.9,-40.073 -50.8,-75.548 -53.7,-111.023 -5.6,-70.008 -51.1,-255.639 -58.7,-283.98 -7.6,-28.437 -26.4,-53.024 -13.2,-77.615 13.2,-24.679 58.7,-94.691 60.5,-113.647 2,-18.957 -54.9,-28.437 -37.8,-49.27 17,-20.742 90.9,-107.9246 119.3,-141.992 6.2,-7.3208 14.8,-16.9842 24.6,-27.685 h 3046.3 c -0.7,7.69476 -1.2,13.9855 -1.6,18.2049"
        /></g><path
        id="path98"
        style="fill:#272425;fill-opacity:1;fill-rule:nonzero;stroke:none"
        d="m 2912.53,6536.95 c -12.16,40.54 -48.64,28.38 -48.64,28.38 0,0 -338.49,-97.28 -660.18,-188.7 44.41,124.24 108.49,231.41 151.06,295.24 9.14,-4.99 19.47,-8.09 30.62,-8.09 35.51,0 64.3,28.79 64.3,64.3 0,9.35 -2.09,18.18 -5.68,26.2 21.18,16.46 47.01,37.97 71.55,61.64 43.92,42.34 -1.57,92.53 21.96,125.47 23.53,32.93 50.19,53.32 76.86,92.53 26.66,39.21 61.16,81.56 92.53,136.45 31.37,54.9 15.68,142.72 15.68,142.72 -20.39,-97.23 -67.44,-134.87 -67.44,-134.87 26.67,29.8 51.76,142.72 51.76,142.72 l -23.53,23.53 c -40.78,-26.67 -123.9,-222.72 -116.06,-196.05 7.84,26.66 37.65,105.08 54.9,127.04 17.25,21.95 45.48,83.12 45.48,83.12 l -40.78,31.37 -29.8,-47.05 c 0,0 17.26,48.62 10.98,59.59 -6.27,10.98 -23.52,17.26 -23.52,17.26 0,0 7.84,10.98 -12.55,-14.12 -20.39,-25.1 -36.07,-130.17 -36.07,-130.17 -17.26,58.02 6.27,150.56 6.27,150.56 -21.96,-48.62 -32.94,-95.67 -29.8,-150.56 3.13,-54.9 -47.05,-144.3 -47.05,-144.3 -12.55,-51.75 -37.65,-114.49 -47.05,-142.72 -9.41,-28.23 -4.71,-54.89 -3.14,-75.28 1.56,-20.39 -1.57,-32.94 -18.82,-61.17 -10.5,-17.18 -17.49,-43.01 -21.37,-60.65 -30.55,-4.99 -53.92,-31.3 -53.92,-63.26 0,-22.6 11.73,-42.4 29.37,-53.87 -87.02,-112.46 -140.01,-214.9 -171.34,-304.56 -230.37,-65.43 -447.4,-126.47 -519.22,-144.85 -174.31,-44.59 -259.45,-89.18 -259.45,-89.18 56.76,-478.36 263.51,-1301.29 263.51,-1301.29 40.53,36.49 409.43,125.67 429.7,125.67 20.27,0 105.4,-20.27 121.62,-16.21 16.21,4.05 32.43,-20.27 243.23,24.32 210.8,44.59 295.93,186.48 295.93,186.48 56.76,16.21 425.66,129.72 425.66,129.72 0,0 -255.4,1212.1 -267.56,1252.64"
      /><path
        id="path100"
        style="fill:#272425;fill-opacity:1;fill-rule:nonzero;stroke:none"
        d="m 9412.57,5651.36 c -48.15,-11.38 -53.31,25.33 -53.31,25.33 l 79.77,107.64 c 0,0 156.9,11.27 217.84,-9.92 60.93,-21.18 50.56,-2.13 50.56,-2.13 0,0 -6.89,30.83 -46.36,48.89 -39.46,18.04 -64.35,63.78 -90.65,93.95 -26.28,30.15 -93.05,107.45 -115.92,95.01 -22.87,-12.45 -190.2,-59.04 -232.47,-72.15 -42.27,-13.12 -96.59,41.31 -161.67,70.12 -65.09,28.81 -341.68,164.85 -367.3,175.61 -25.61,10.77 -114.58,56.22 -143.67,55.21 0,0 -48.44,-283.73 -98.22,-575.27 -88.31,138.31 -160.12,323.86 -105.83,523.53 49.35,181.52 57.06,289.43 45.37,360.91 1.38,0.69 2.8,1.26 4.17,2.01 63.16,34.36 86.5,113.42 52.13,176.58 -3.96,7.28 -8.58,13.97 -13.64,20.16 3.82,19.56 7.24,40.94 9.66,63.73 8.72,82.28 -7.61,86.81 -30.92,144.2 -23.31,57.4 -28.46,81.43 -50.02,117.41 -21.56,35.98 -33.32,75.8 -41.67,113 -8.35,37.2 -27.07,64.3 -40,99 -12.94,34.7 -11.85,80.03 -13.59,101.44 -1.75,21.42 -8.5,52.03 -13.31,71.79 -4.8,19.75 -34.91,49.58 -34.91,49.58 0,0 4.8,-19.75 18.52,-70.43 13.71,-50.69 -3.25,-45.01 -9.5,-66.3 -6.25,-21.29 -4.78,-45.84 5.31,-71.66 10.09,-25.82 28.01,-193.49 22.44,-157.76 -5.58,35.73 -21.37,79.32 -32.43,110.57 -11.07,31.26 -12.54,88.6 -11.38,126.51 1.17,37.91 -22.56,107 -35.21,112.05 -12.65,5.04 -67.41,-21.78 -67.41,-21.78 0,0 2.74,-92.44 -0.39,-86.68 -3.13,5.75 -15.52,79.51 -15.52,79.51 l -22.66,-9.34 c 0,0 -25.71,-11.01 -22.16,-28.46 3.55,-17.45 86.45,-166.16 86.45,-166.16 l -9.09,-12.41 c -4.04,3.77 -24.13,15.2 -40.34,70.49 -16.22,55.29 -68.92,101.16 -68.92,101.16 0,0 16.83,-23.65 36.66,-71 19.82,-47.36 4.26,-58.82 17.83,-94.67 9.77,-25.85 43.41,-67.2 61.48,-88.35 -11.85,7.83 -31.86,14.56 -68.77,47.11 -53.32,47.02 -49.59,105.71 -49.59,105.71 -9.51,-33.5 -35.58,-40.23 32.28,-95.75 67.86,-55.51 208.38,-219.08 193.44,-388.24 -2.73,-30.83 -3.63,-56.97 -3.35,-79.28 -36.15,-39.86 -45.18,-99.66 -18,-149.61 28.21,-51.84 86.53,-76.78 141.46,-65.07 9.58,-66.05 9.15,-146.9 -16.39,-237.41 -63.71,-225.81 -73.41,-388.87 105.2,-651.29 -34.14,-199.9 -68.52,-401.21 -88,-515.2 -48.43,-283.27 11.1,-320.04 66.83,-358.88 55.72,-38.85 528.85,-354.49 672.24,-345.63 l 58.57,382.65 c 0,0 119.18,35.2 186.45,111.33 67.26,76.13 141.81,166.11 173.38,207.98 31.55,41.88 106.11,131.85 133.85,171.65 27.75,39.81 76.85,303.67 87.28,338.99 10.42,35.31 27.41,49.49 27.41,49.49 0,0 -305.85,-28.09 -354.01,-39.47"
      /><path
        id="path102"
        style="fill:#272425;fill-opacity:1;fill-rule:nonzero;stroke:none"
        d="m 5718.05,7783.55 c -23.13,269.8 -15.42,308.34 -15.42,308.34 0,0 -134.9,53.96 -196.57,46.25 0,0 -92.5,362.3 -104.06,408.55 -11.57,46.25 -30.83,73.23 -38.54,23.12 0,0 -343.36,-164.44 -635.02,-311.95 -211.7,232.95 -124.22,375.91 -63.65,434.81 7.32,-9.78 18.89,-16.19 32.04,-16.19 22.15,0 40.12,17.97 40.12,40.13 0,1.51 -0.28,2.94 -0.44,4.41 20.68,19.72 48.47,44.93 75.8,55.9 43.52,17.45 142.31,172.02 125.85,163.29 -16.47,-8.72 -32.94,-39.88 -34.11,-44.87 -1.17,-4.99 -122.32,-94.74 -122.32,-94.74 0,0 16.47,14.96 30.58,31.17 14.12,16.2 23.52,33.65 29.41,49.85 5.88,16.21 38.81,39.9 58.8,51.11 20,11.22 18.82,48.62 18.82,48.62 -5.88,-2.49 -32.93,-21.19 -44.69,-32.41 -11.76,-11.22 -28.23,-28.67 -35.28,-36.15 -7.06,-7.48 -32.93,-21.19 -32.93,-21.19 15.28,13.71 12.94,16.2 44.69,53.6 31.75,37.4 50.57,39.89 49.39,43.63 -1.17,3.74 -22.34,34.9 -22.34,34.9 0,0 -28.23,-1.25 -38.81,-7.48 -10.59,-6.23 -10.59,-31.16 -21.18,-47.37 -10.58,-16.2 -48.21,-64.81 -48.21,-64.81 1.17,8.72 -9.41,33.65 7.05,41.13 16.47,7.48 38.81,71.05 38.81,71.05 0,0 -47.04,-54.85 -58.8,-73.54 -11.77,-18.7 -15.29,-51.11 -20,-79.78 -4.7,-28.67 -19.99,-56.1 -38.81,-77.29 -7.96,-8.96 -12.43,-20.75 -15.09,-31.46 -15.39,-5.61 -26.44,-20.24 -26.44,-37.57 0,-3.96 0.75,-7.7 1.82,-11.3 -72.36,-44.14 -80.37,-139.13 -86.89,-201.11 -4.12,-39.07 62.46,-147.2 138.92,-255.39 -199.99,-101.4 -371.44,-192.95 -383.88,-214.73 -30.84,-53.96 -7.71,-69.38 -7.71,-69.38 l 42.39,-165.73 c 0,0 262.09,-1005.96 281.36,-1067.63 0,0 7.71,-30.83 65.52,11.56 57.82,42.4 578.14,281.37 662.94,339.18 84.79,57.81 339.17,169.58 339.17,169.58 l -30.83,134.9 c 0,0 61.66,127.19 38.54,396.99"
      /><path
        id="path104"
        style="fill:#272425;fill-opacity:1;fill-rule:nonzero;stroke:none"
        d="m 13267.5,8178.65 c 23.2,48.44 17.4,73.63 17.4,120.13 0,46.51 21.3,100.76 15.5,151.14 -5.8,50.38 21.3,209.27 21.3,209.27 -19.4,-19.38 -40.7,-65.88 -50.4,-94.95 -9.6,-29.06 -25.1,-83.31 -19.3,-127.88 5.8,-44.57 -25.2,-184.08 -25.2,-184.08 17.4,67.82 0,116.26 1.9,158.89 2,42.63 9.7,137.57 25.2,174.39 15.5,36.81 34.9,71.69 34.9,71.69 l -52.3,29.07 c 0,0 -40.7,-1.94 -50.4,-7.76 -9.7,-5.81 -17.4,-52.31 -19.4,-77.5 -1.9,-25.19 -36.8,-131.76 -36.8,-131.76 0,0 7.8,48.44 17.4,91.07 9.7,42.63 21.4,118.19 21.4,118.19 0,0 -34.9,11.63 -33,5.82 2,-5.82 -34.9,-79.45 -38.7,-116.26 -3.9,-36.82 -50.4,-77.51 -69.8,-143.39 -19.4,-65.88 5.8,-242.21 5.8,-242.21 -25.2,34.88 -44.5,178.27 -44.5,178.27 1.9,-27.13 -3.9,-125.95 25.1,-182.14 29.1,-56.19 21.4,-124.01 5.8,-184.08 -9.5,-37.01 -9.5,-93.07 -8.1,-130.71 -31.8,-7.97 -55.5,-36.54 -55.5,-70.85 0,-24.76 12.4,-46.55 31.2,-59.81 -0.3,-0.58 -0.4,-1.09 -0.7,-1.68 -41.4,-87.81 -219.2,-276.43 -407.7,-412.22 -135.3,-97.52 -235.2,-261.76 -287.5,-357.53 -32.2,150.41 -141.5,691.6 -154.2,732.47 l -284.9,-90.11 40.7,-43.6 34.9,-209.26 c 0,0 -311,-34.88 -340.1,-43.6 -29,-8.72 -90.1,-46.5 -113.3,-55.22 -23.3,-8.72 -197.7,-124.98 -171.5,-133.7 26.1,-8.72 75.6,-34.88 81.4,-43.6 5.8,-8.72 2.9,-104.63 23.2,-151.13 20.4,-46.51 32,-145.33 43.6,-183.11 11.6,-37.79 46.5,-107.54 58.1,-127.89 11.7,-20.34 55.3,-95.91 61.1,-124.98 5.8,-29.06 37.8,-119.17 34.9,-154.04 -2.9,-34.88 -8.8,-159.86 14.5,-180.2 23.2,-20.35 61,-5.81 61,-5.81 l 29.1,-43.6 c 0,0 122.1,26.15 165.7,31.97 43.6,5.81 290.6,58.13 290.6,58.13 0,0 23.3,-130.8 23.3,-156.95 0,-26.16 -2.9,-75.57 -2.9,-75.57 l 281.9,5.81 c 0,0 14.5,98.82 0,151.14 -13.8,49.79 -146.1,707.25 -166.3,795.72 22,49.55 58.1,127.94 131.4,224.45 110.5,145.33 255.8,244.15 343,302.28 80.3,53.54 214.8,249.98 235.5,280.65 5.6,-1.35 11.3,-2.27 17.3,-2.27 38.8,0 70.2,30.22 72.7,68.33 31.2,31.79 71.3,78.3 72.7,92.17 1.9,19.38 15.5,106.57 32.9,158.89 17.4,52.31 205.4,246.08 205.4,246.08 -73.6,-32.94 -168.6,-155.01 -145.3,-106.57"
      /><path
        id="path106"
        style="fill:#272425;fill-opacity:1;fill-rule:nonzero;stroke:none"
        d="m 14234.1,5908.85 -114.2,262.77 -909.8,-477.72 c 0,0 177.6,-406.94 274.4,-629.63 -58.2,-97 -93,-209.12 -63.8,-325.54 63.3,-252.69 124.4,-494.73 142.6,-622.6 -14.9,-3.73 -29.1,-11.37 -40.7,-23.09 -29.6,-29.77 -33.3,-75.44 -11.4,-109.25 -11.7,-60.5 -17.1,-169.04 62.9,-251.18 114.5,-117.62 339.4,-212.06 434.9,-337.36 95.5,-125.29 200.4,-210.59 236.6,-227.61 0,0 -143.2,168.91 -185.2,218.26 0,0 183.3,-193.52 251.6,-155.26 l 41.7,64.83 c 0,0 -99.1,64.39 -167.8,109.84 0,0 135.3,-58.57 184.8,-73.64 l 39.7,78.14 c 0,0 -15.6,54.82 -102.3,94.13 -14.2,6.4 -30.2,12.4 -48.3,17.67 -129.5,37.66 -255.2,63.91 -289.6,94.25 0,0 289.4,-48.58 369.5,-94 0,0 -165.9,119.36 -284,141.83 -118,22.48 -194.3,86.93 -209.6,102.11 -15.3,15.17 -53.6,102.59 -89.9,138.63 -22.6,22.47 -58.6,64.13 -89.4,97.37 11.1,30.96 4.3,66.9 -20.6,91.62 -17.1,16.99 -39.4,25.46 -61.8,25.42 -1.8,14.65 -4.8,29.22 -9.7,41.91 -19.2,49.41 -139,642.73 -120.3,737.93 7.5,38.23 26.5,79.23 50.3,119.1 10.6,-24.3 19.6,-45.15 26.4,-60.92 64.7,-149.54 193.9,-444.35 198.2,-452.9 4.3,-8.54 170.9,68.99 254.2,109.89 83.4,40.9 660.1,316.51 660.1,316.51 l -92.7,224.33 c 0,0 65.9,143.53 41.9,286.78 -24,143.26 -172.5,431.59 -226,463.52 l -132.7,3.86"
      /><path
        id="path108"
        style="fill:#272425;fill-opacity:1;fill-rule:nonzero;stroke:none"
        d="m 8376.73,8243.83 c -37.45,33.09 -57.64,52.33 -57.64,52.33 5.89,-10.11 26.85,-28.58 57.64,-52.33"
      /><path
        id="path110"
        style="fill:#272425;fill-opacity:1;fill-rule:nonzero;stroke:none"
        d="m 10080,6413.16 c -0.5,0.23 -1,0.42 -1.6,0.61 1,-0.44 1.6,-0.61 1.6,-0.61"
      /><path
        id="path112"
        style="fill:#272425;fill-opacity:1;fill-rule:nonzero;stroke:none"
        d="m 10049,6498.35 c 5.2,74.86 -44.7,109.28 -70.55,126.49 -25.82,17.21 -157.47,117.03 -167.8,135.1 -7.59,13.29 -78.82,44.71 -117.08,69.31 6.01,13.59 9.4,28.58 9.4,44.4 0,49.63 -32.86,91.57 -78,105.3 0.19,10.72 -0.3,22 -1.67,33.98 -15.97,139.06 -133.09,325.46 -261.07,415.52 -134.95,94.97 -115.38,174.75 -106.66,196.22 36.02,-19.85 72.73,-39.41 110.09,-58.56 607.52,-311.42 929.14,-398.21 929.14,-398.21 l -479.88,234.84 -25.53,163.37 250.21,464.58 -250.21,163.36 -102.1,-86.79 5.1,132.74 c 0,0 -250.15,224.63 -510.52,178.68 0,0 -255.26,-398.2 -239.95,-551.36 0,0 -409.33,256.28 -565.19,376.51 123.29,-108.96 435.25,-369.34 841.71,-598.38 -11.19,-24.74 -36.18,-115.29 128.36,-231.08 129.54,-91.16 233.15,-298.53 246.08,-411.21 0.8,-6.95 0.73,-13.32 0.31,-19.44 -0.1,0 -0.21,0.01 -0.21,0.01 -60.9,0 -110.19,-49.28 -110.19,-110.08 0,-37.47 18.76,-70.52 47.35,-90.4 5.82,-25.57 17.38,-54.29 39.57,-82.69 64.54,-82.6 178.12,-183.28 240.94,-255.56 62.82,-72.29 20.65,-126.5 1.72,-164.36 0,0 28.4,23.23 37.86,66.26 9.47,43.02 -5.16,108.43 -7.74,108.43 0,0 51.63,-57.66 34.42,-141.13 -17.21,-83.47 0.86,-54.21 20.65,-89.5 0,0 -23.23,44.76 -10.32,76.59 12.9,31.84 15.48,104.12 1.72,141.12 -13.77,37.01 -32.71,90.36 -33.56,92.94 -0.86,2.58 127.35,-67.12 139.39,-151.45 12.01,-84.33 37.91,-93.79 51.61,-104.12 0,0 -51.61,119.61 -50.74,172.96 0.86,53.36 -10.33,80.89 -42.16,112.73 0,0 72.3,-12.91 80.9,-83.47 8.1,-66.77 34,-64.98 44,-68.23 -6.9,3.03 -33.9,19.16 -29.4,84.58"
      /></g></g></svg>
